<?xml version="1.0" encoding="UTF-8" standalone="no"?>
<!-- Created with Inkscape (http://www.inkscape.org/) -->

<svg
   xmlns:dc="http://purl.org/dc/elements/1.1/"
   xmlns:cc="http://creativecommons.org/ns#"
   xmlns:rdf="http://www.w3.org/1999/02/22-rdf-syntax-ns#"
   xmlns:svg="http://www.w3.org/2000/svg"
   xmlns="http://www.w3.org/2000/svg"
   xmlns:sodipodi="http://sodipodi.sourceforge.net/DTD/sodipodi-0.dtd"
   xmlns:inkscape="http://www.inkscape.org/namespaces/inkscape"
   width="72"
   height="72"
   version="1.0"
   id="svg6"
   sodipodi:docname="arch.svg"
   inkscape:version="0.92.4 5da689c313, 2019-01-14">
  <defs
     id="defs10" />
  <sodipodi:namedview
     pagecolor="#ffffff"
     bordercolor="#666666"
     borderopacity="1"
     objecttolerance="10"
     gridtolerance="10"
     guidetolerance="10"
     inkscape:pageopacity="0"
     inkscape:pageshadow="2"
     inkscape:window-width="1876"
     inkscape:window-height="1027"
     id="namedview8"
     showgrid="false"
     inkscape:zoom="6.5555556"
     inkscape:cx="7.063449"
     inkscape:cy="26.502823"
     inkscape:window-x="44"
     inkscape:window-y="25"
     inkscape:window-maximized="1"
     inkscape:current-layer="svg6" />
  <metadata
     id="metadata2">
    <rdf:RDF>
      <cc:Work
         rdf:about="">
        <dc:format>image/svg+xml</dc:format>
        <dc:type
           rdf:resource="http://purl.org/dc/dcmitype/StillImage" />
        <dc:title />
      </cc:Work>
    </rdf:RDF>
  </metadata>
  <path
     d="m35.997 17.997c-1.6026 3.9292-2.5693 6.4994-4.3536 10.312 1.094 1.1597 2.4369 2.5101 4.6176 4.0354-2.3446-0.96477-3.9438-1.9334-5.139-2.9385-2.2836 4.7651-5.8613 11.553-13.122 24.598 5.7064-3.2944 10.13-5.3254 14.252-6.1004-0.17702-0.76137-0.27767-1.5849-0.27083-2.4442l0.0068-0.18281c0.09055-3.6559 1.9924-6.4674 4.2453-6.2765 2.2529 0.19089 4.004 3.3111 3.9135 6.9671-0.01703 0.68794-0.09463 1.3497-0.2302 1.9635 4.0777 0.79768 8.4539 2.8235 14.083 6.0734-1.11-2.0435-2.1007-3.8856-3.0468-5.64-1.4903-1.1551-3.0448-2.6584-6.2155-4.2859 2.1794 0.5663 3.7399 1.2197 4.9562 1.95-9.6195-17.91-10.398-20.29-13.697-28.031z"
     fill="#fff"
     fill-rule="evenodd"
     id="path4"
     style="fill:#000000" />
</svg>
