<?xml version="1.0" encoding="UTF-8" standalone="no"?>
<!-- Created with Inkscape (http://www.inkscape.org/) -->

<svg
   xmlns:dc="http://purl.org/dc/elements/1.1/"
   xmlns:cc="http://creativecommons.org/ns#"
   xmlns:rdf="http://www.w3.org/1999/02/22-rdf-syntax-ns#"
   xmlns:svg="http://www.w3.org/2000/svg"
   xmlns="http://www.w3.org/2000/svg"
   xmlns:sodipodi="http://sodipodi.sourceforge.net/DTD/sodipodi-0.dtd"
   xmlns:inkscape="http://www.inkscape.org/namespaces/inkscape"
   width="72"
   height="72"
   version="1.0"
   id="svg6"
   sodipodi:docname="debian.svg"
   inkscape:version="0.92.4 5da689c313, 2019-01-14"
   inkscape:export-filename="/home/rastik/bin/matter/Matter/icons/debian.png"
   inkscape:export-xdpi="96"
   inkscape:export-ydpi="96">
  <defs
     id="defs10" />
  <sodipodi:namedview
     pagecolor="#ffffff"
     bordercolor="#666666"
     borderopacity="1"
     objecttolerance="10"
     gridtolerance="10"
     guidetolerance="10"
     inkscape:pageopacity="0"
     inkscape:pageshadow="2"
     inkscape:window-width="1876"
     inkscape:window-height="1027"
     id="namedview8"
     showgrid="false"
     inkscape:zoom="3.2777778"
     inkscape:cx="-111.00944"
     inkscape:cy="50.728479"
     inkscape:window-x="44"
     inkscape:window-y="25"
     inkscape:window-maximized="1"
     inkscape:current-layer="svg6" />
  <metadata
     id="metadata2">
    <rdf:RDF>
      <cc:Work
         rdf:about="">
        <dc:format>image/svg+xml</dc:format>
        <dc:type
           rdf:resource="http://purl.org/dc/dcmitype/StillImage" />
        <dc:title />
      </cc:Work>
    </rdf:RDF>
  </metadata>
  <path
     style="fill:#ffffff;stroke-width:0.07043128"
     d="M 34.712347,53.993277 C 32.115536,53.728356 30.180987,53.202848 28.150955,52.210916 26.285658,51.299478 24.97069,50.374443 23.48778,48.930534 21.881415,47.366413 20.865131,45.980738 19.892957,44.02909 17.885779,39.999645 17.455448,35.554209 18.650745,31.19672 c 1.329009,-4.844927 4.734932,-9.002459 9.22852,-11.265041 5.069077,-2.552347 10.950386,-2.598811 16.01277,-0.126504 1.835022,0.896166 3.183674,1.845983 4.649897,3.274793 1.596806,1.556065 2.647936,2.98807 3.597654,4.901264 0.893791,1.800529 1.456322,3.610098 1.738994,5.594048 0.175334,1.230567 0.176572,3.655105 0.0025,4.859758 -0.447193,3.094473 -1.64183,5.976819 -3.511399,8.472065 -0.628755,0.839175 -2.126017,2.386857 -2.979681,3.08002 -2.482081,2.015412 -5.543598,3.363656 -8.733481,3.846082 -0.876964,0.132627 -3.263687,0.229494 -3.944149,0.160072 z M 36.93093,48.045363 C 36.795353,48.012708 36.437693,47.938542 36.136131,47.880606 35.334933,47.726682 34.877086,47.490663 34.381652,46.976179 34.090718,46.674064 33.97209,46.58603 34.005957,46.697387 l 0.04947,0.162755 -0.340651,-0.185077 c -0.570186,-0.309781 -0.902538,-0.491622 -0.934627,-0.511363 -0.01682,-0.01032 0.007,-0.05628 0.05281,-0.102129 0.125174,-0.125173 0.103635,-0.170538 -0.12618,-0.265729 -0.115236,-0.04771 -0.337749,-0.225894 -0.49447,-0.395916 -0.190685,-0.206875 -0.343212,-0.309132 -0.461106,-0.309132 -0.138504,0 -0.236063,-0.09267 -0.456353,-0.433504 -0.154105,-0.238429 -0.28019,-0.490986 -0.28019,-0.561238 0,-0.07897 -0.03669,-0.113658 -0.09611,-0.09086 -0.142526,0.0547 -1.142333,-1.326427 -1.058457,-1.462144 0.0195,-0.03157 -0.04492,-0.162767 -0.14316,-0.291576 -0.132077,-0.17316 -0.158024,-0.25479 -0.09957,-0.313242 0.05845,-0.05846 0.02228,-0.167545 -0.138814,-0.418587 -0.119828,-0.186734 -0.269007,-0.461908 -0.331508,-0.611496 l -0.113638,-0.271969 0.196591,0.154633 c 0.251661,0.197958 0.283854,0.09486 0.09068,-0.290399 -0.189265,-0.377468 -0.477386,-0.691966 -0.633926,-0.691966 -0.065,0 -0.197294,-0.06223 -0.293979,-0.138279 -0.20313,-0.159781 -0.505716,-0.812428 -0.447275,-0.964724 0.02179,-0.05676 -0.01118,-0.201485 -0.07326,-0.321546 -0.07584,-0.146657 -0.0999,-0.312769 -0.07333,-0.506168 0.02858,-0.207919 -1.41e-4,-0.37059 -0.103466,-0.585703 -0.220052,-0.458223 -0.240797,-1.357774 -0.07009,-3.039068 l 0.14573,-1.435252 0.438722,-0.876005 c 0.350744,-0.700337 0.419082,-0.888139 0.340789,-0.936526 -0.146523,-0.09056 0.178344,-0.527099 1.055433,-1.418237 0.770493,-0.782829 1.469966,-1.294708 1.87235,-1.370194 0.129562,-0.02428 0.276073,-0.09299 0.325565,-0.152637 0.07826,-0.09429 0.0671,-0.101431 -0.08552,-0.0547 l -0.175527,0.05373 0.198814,-0.211252 c 0.286464,-0.304398 0.798441,-0.557796 1.245027,-0.616215 0.213056,-0.02787 0.466606,-0.09488 0.563448,-0.148911 0.169567,-0.0946 0.165658,-0.09687 -0.105644,-0.06119 -0.254358,0.03344 -0.264617,0.02917 -0.105644,-0.04408 0.09684,-0.04462 0.496746,-0.238615 0.888679,-0.431105 0.664358,-0.326291 0.759719,-0.353059 1.40862,-0.395412 2.470437,-0.161242 3.932174,0.185377 5.246757,1.244154 1.102524,0.887985 2.068074,2.347179 2.341578,3.53872 0.258578,1.126515 0.271969,1.253872 0.240749,2.289348 -0.01748,0.578812 -0.05572,1.11577 -0.08508,1.193241 -0.04419,0.116643 -0.03915,0.122696 0.02908,0.03521 0.135287,-0.173416 0.04183,0.46524 -0.136731,0.934214 -0.108953,0.286173 -0.212673,0.436029 -0.351474,0.507806 -0.201479,0.104187 -0.28258,0.27915 -0.284279,0.613281 -0.0012,0.205163 -0.316576,0.538954 -1.115855,1.18042 -0.446853,0.358618 -0.768861,0.491076 -0.566471,0.233015 0.05317,-0.06779 -0.04152,-0.0012 -0.210451,0.147706 -0.317753,0.280352 -0.647185,0.449269 -0.979688,0.502337 -0.105741,0.01688 -0.366577,0.08174 -0.579633,0.144155 -0.804026,0.235516 -1.962404,0.01693 -2.808645,-0.530042 -1.284661,-0.830319 -1.931713,-1.973921 -2.098857,-3.709546 -0.109413,-1.136147 0.739359,-2.580317 1.845828,-3.140633 1.134077,-0.574296 2.494074,-0.540211 3.519478,0.08821 l 0.352161,0.215823 -0.340202,-0.317886 c -0.187103,-0.174835 -0.578994,-0.435908 -0.870862,-0.580154 -0.472902,-0.233719 -0.602154,-0.265401 -1.187249,-0.290988 -0.810529,-0.03545 -1.427112,0.130309 -2.06218,0.554385 -0.387307,0.258638 -0.561578,0.45313 -1.279659,1.428138 -0.192069,0.260787 -0.575121,1.273109 -0.644325,1.702813 -0.09156,0.568463 -0.01421,1.368733 0.192464,1.990991 0.288694,0.869267 0.754341,1.4943 1.671671,2.243874 0.316904,0.258942 0.626485,0.526383 0.68796,0.594299 0.151987,0.167914 0.915778,0.394805 1.664734,0.494524 1.125683,0.149874 2.286489,-0.04134 3.280904,-0.540381 0.666633,-0.334555 1.040489,-0.601886 1.645709,-1.176789 0.379683,-0.360659 0.516372,-0.455285 0.517167,-0.358024 6.07e-4,0.110998 0.01196,0.11526 0.06882,0.02659 0.03728,-0.05809 0.0502,-0.161978 0.02877,-0.230823 -0.02143,-0.06885 0.03205,-0.271865 0.118854,-0.451169 0.157316,-0.324976 0.158191,-0.325523 0.279752,-0.1754 l 0.121943,0.150596 0.04698,-0.192446 c 0.02586,-0.105845 0.172985,-0.467377 0.326955,-0.803413 0.153977,-0.336031 0.299008,-0.771823 0.322294,-0.968428 0.02331,-0.196604 0.06962,-0.357465 0.102954,-0.357465 0.03333,0 0.06205,-0.08716 0.0638,-0.193684 l 0.0031,-0.193684 0.09675,0.211294 0.09674,0.211289 0.0054,-0.298576 c 0.0031,-0.164218 0.06909,-0.465307 0.146547,-0.669099 0.168553,-0.443453 0.171066,-0.47616 0.03661,-0.47616 -0.13091,0 -0.202273,-0.272182 -0.161626,-0.616469 0.01942,-0.16446 -0.01694,-0.370098 -0.09642,-0.545649 -0.07016,-0.154949 -0.127565,-0.345112 -0.127553,-0.42259 1.9e-5,-0.129452 0.01178,-0.126599 0.144872,0.03521 l 0.144859,0.17608 -0.038,-0.1773 c -0.02088,-0.09752 -0.07473,-0.351073 -0.119624,-0.563455 -0.103052,-0.487561 -0.181422,-0.637532 -0.30781,-0.589035 -0.06965,0.02671 -0.126356,-0.04953 -0.186824,-0.25139 -0.09833,-0.328206 -0.05585,-0.402751 0.249448,-0.437662 0.25043,-0.02866 0.375561,0.156144 0.72179,1.065828 0.246,0.646358 0.317006,0.691748 0.103301,0.06604 -0.150863,-0.44173 -0.243068,-1.190752 -0.146577,-1.190752 0.03593,0 0.06534,0.03697 0.06534,0.08217 0,0.04517 0.01724,0.06491 0.03836,0.04382 0.07819,-0.07819 -0.355468,-1.009621 -0.749301,-1.609401 -0.634431,-0.966181 -1.684967,-1.991989 -2.634546,-2.572534 -0.211246,-0.12915 -0.211264,-0.129147 -0.08804,0.01447 0.208896,0.24345 0.137581,0.254822 -0.188986,0.03014 -0.171733,-0.118157 -0.331344,-0.274999 -0.354685,-0.348539 -0.05548,-0.174871 -0.322196,-0.236696 -0.776303,-0.179957 -0.294533,0.0368 -0.423324,0.01707 -0.652721,-0.09995 -0.242229,-0.123579 -2.079497,-0.783412 -2.18136,-0.783412 -0.01876,0 -0.019,0.03962 -5.65e-4,0.08804 0.0255,0.06704 -0.170137,0.09094 -0.820028,0.100172 -0.480574,0.0068 -0.791972,-0.01235 -0.712661,-0.0439 0.101735,-0.04047 0.0092,-0.07053 -0.333183,-0.108231 -0.260726,-0.0287 -0.522199,-0.03371 -0.581059,-0.01114 -0.173852,0.06671 -0.12235,-0.01162 0.08668,-0.13184 0.188767,-0.108564 0.18385,-0.110092 -0.193684,-0.06014 -0.213055,0.02819 -0.51415,0.05664 -0.669098,0.06321 -0.481139,0.02041 -2.443344,0.91663 -3.275052,1.495855 -0.251794,0.175353 -0.512894,0.322134 -0.580223,0.326178 -0.184952,0.01111 -1.787266,1.555105 -2.004602,1.931642 -0.104606,0.181234 -0.226577,0.352166 -0.271048,0.379853 -0.04447,0.02768 -0.199938,0.334313 -0.345483,0.681392 -0.261807,0.624329 -0.486393,0.959595 -0.59701,0.891235 -0.08224,-0.05081 -0.513303,0.925825 -0.876035,1.984817 l -0.312356,0.911918 0.01644,2.423832 c 0.01301,1.919499 0.0411,2.55572 0.134971,3.057706 0.355258,1.899782 1.096654,3.620521 2.298717,5.335207 0.588725,0.839781 2.097574,2.34737 2.959219,2.956734 1.096138,0.775211 2.635377,1.467809 3.697641,1.663794 0.462776,0.08539 1.866443,0.09164 1.514271,0.0067 z m 2.112941,-8.019603 c 0.115332,-0.03296 -0.07122,-0.06589 -0.540703,-0.09537 -0.928865,-0.05834 -1.52572,-0.216764 -1.94216,-0.515626 -0.184092,-0.132111 -0.376927,-0.240202 -0.42852,-0.240202 -0.112285,0 -0.828685,-0.488654 -1.172126,-0.799498 -0.254845,-0.23066 -0.194371,-0.131978 0.20776,0.339004 0.33452,0.391794 -0.07797,0.04134 -0.65289,-0.554742 -0.59652,-0.618447 -0.631243,-0.515201 -0.04316,0.128281 0.666124,0.728844 1.988878,1.482171 2.982018,1.698297 0.460973,0.100321 1.304482,0.121464 1.589757,0.03988 z"
     id="path872"
     inkscape:connector-curvature="0" />
</svg>
