<?xml version="1.0" encoding="UTF-8" standalone="no"?>
<!-- Created with Inkscape (http://www.inkscape.org/) -->

<svg
   xmlns:dc="http://purl.org/dc/elements/1.1/"
   xmlns:cc="http://creativecommons.org/ns#"
   xmlns:rdf="http://www.w3.org/1999/02/22-rdf-syntax-ns#"
   xmlns:svg="http://www.w3.org/2000/svg"
   xmlns="http://www.w3.org/2000/svg"
   xmlns:sodipodi="http://sodipodi.sourceforge.net/DTD/sodipodi-0.dtd"
   xmlns:inkscape="http://www.inkscape.org/namespaces/inkscape"
   width="72"
   height="72"
   version="1.0"
   id="svg6"
   sodipodi:docname="elementary.svg"
   inkscape:version="0.92.4 5da689c313, 2019-01-14"
   inkscape:export-filename="/home/rastik/bin/matter/Matter/icons/elementary.png"
   inkscape:export-xdpi="96"
   inkscape:export-ydpi="96">
  <defs
     id="defs10" />
  <sodipodi:namedview
     pagecolor="#ffffff"
     bordercolor="#666666"
     borderopacity="1"
     objecttolerance="10"
     gridtolerance="10"
     guidetolerance="10"
     inkscape:pageopacity="0"
     inkscape:pageshadow="2"
     inkscape:window-width="1876"
     inkscape:window-height="1027"
     id="namedview8"
     showgrid="false"
     inkscape:zoom="11.819444"
     inkscape:cx="19.417156"
     inkscape:cy="36"
     inkscape:window-x="44"
     inkscape:window-y="25"
     inkscape:window-maximized="1"
     inkscape:current-layer="svg6" />
  <metadata
     id="metadata2">
    <rdf:RDF>
      <cc:Work
         rdf:about="">
        <dc:format>image/svg+xml</dc:format>
        <dc:type
           rdf:resource="http://purl.org/dc/dcmitype/StillImage" />
        <dc:title />
      </cc:Work>
    </rdf:RDF>
  </metadata>
  <g
     id="g927"
     transform="matrix(0.62409437,0,0,0.61920978,111.12113,-104.37438)"
     style="fill:#000000">
    <path
       style="fill:#000000;stroke-width:0.22195478"
       d="m -122.25642,255.73211 c -9.33999,-0.71278 -17.47256,-5.52202 -22.47058,-13.28812 -1.96271,-3.04973 -3.29026,-6.26263 -4.08113,-9.87699 -0.32292,-1.47582 -0.4103,-2.78071 -0.40126,-5.99278 0.0125,-4.44275 0.30997,-6.30889 1.5607,-9.79071 3.0238,-8.4177 10.11624,-15.21137 18.62265,-17.83818 3.40536,-1.05158 5.29057,-1.33076 8.87819,-1.31477 5.97179,0.0266 10.89436,1.53843 15.93449,4.89378 6.026313,4.01188 10.351133,10.2262 12.185614,17.50947 0.441354,1.75227 0.501318,2.54786 0.501318,6.65139 0,5.29155 -0.259741,6.79004 -1.874648,10.81522 -1.589398,3.96159 -3.587588,6.93614 -6.750224,10.04853 -4.08851,4.02354 -9.36162,6.77496 -14.85114,7.74907 -1.92581,0.34173 -5.59057,0.56104 -7.25398,0.43409 z m 7.54647,-3.17029 c 10.71186,-2.41601 18.826916,-10.88128 20.657015,-21.5485 0.404444,-2.35742 0.341429,-7.46648 -0.119085,-9.65504 -2.144128,-10.18978 -9.51646,-17.95918 -19.65012,-20.70844 -1.92203,-0.52145 -2.49145,-0.57267 -6.43668,-0.57905 -3.71395,-0.006 -4.59798,0.061 -6.2298,0.47206 -10.48329,2.64084 -18.09662,10.72287 -20.09292,21.32988 -0.49505,2.63035 -0.32524,8.50578 0.31549,10.91622 2.9884,11.24245 11.83416,18.93055 23.34377,20.28873 1.64229,0.1938 6.38747,-0.10427 8.21233,-0.51586 z m -8.37949,-1.80431 c -5.38309,-0.67004 -10.31761,-3.01633 -14.18327,-6.74393 -0.76865,-0.7412 -1.42495,-1.47866 -1.45844,-1.63878 -0.0404,-0.19329 0.75974,-0.54365 2.38061,-1.04237 1.34282,-0.41317 3.02665,-0.99139 3.74184,-1.28494 l 1.30035,-0.53372 2.25093,1.14164 c 2.32342,1.17842 3.64232,1.56679 6.14898,1.81063 3.10541,0.30209 7.64836,-0.77175 11.14471,-2.63433 5.01301,-2.67054 10.96127,-8.60994 14.371359,-14.34997 0.513313,-0.86404 1.033728,-1.57097 1.156476,-1.57097 0.422115,0 0.05899,6.78398 -0.464843,8.68446 -1.193774,4.33099 -3.367042,8.04266 -6.548922,11.18477 -3.67545,3.6295 -7.93487,5.87168 -12.79497,6.73534 -1.94151,0.34501 -5.29299,0.46022 -7.04481,0.24217 z m -1.33957,-11.63186 c -1.51944,-0.36788 -2.93237,-1.00887 -2.93237,-1.33031 0,-0.1392 0.6686,-0.64421 1.48577,-1.12224 5.95888,-3.4858 12.17351,-9.84023 14.51264,-14.83909 3.5082,-7.49726 0.69083,-14.79124 -6.28219,-16.26421 -8.28286,-1.74966 -18.01721,6.79595 -19.71255,17.30527 -0.35876,2.22397 -0.1592,5.76539 0.44407,7.88048 0.54034,1.89446 1.25842,3.39608 2.50311,5.23442 0.82032,1.21158 0.85988,1.3364 0.50556,1.59548 -0.51683,0.37791 -5.08021,1.45738 -6.32978,1.4973 l -0.9988,0.0319 -1.05747,-2.12621 c -2.64972,-5.32769 -3.12317,-12.04023 -1.25897,-17.84972 1.19627,-3.72798 2.8515,-6.48879 5.63718,-9.40244 3.39991,-3.55609 7.02709,-5.67186 11.93981,-6.96463 2.63821,-0.69423 8.55194,-0.69873 11.17226,-0.009 6.35166,1.67314 11.18806,5.02127 14.69149,10.17061 1.093855,1.60774 2.596378,4.70594 2.961063,6.10571 0.262459,1.0074 0.259407,1.01727 -0.9849,3.18388 -4.916913,8.56142 -12.488193,15.15012 -19.280743,16.77853 -2.12371,0.50912 -5.19942,0.56338 -7.01518,0.12375 z m -6.57917,-3.83971 c -1.18392,-1.21351 -2.08923,-2.71711 -2.73777,-4.54702 -0.8661,-2.44376 -0.94911,-6.16887 -0.20198,-9.06408 1.16095,-4.49877 3.15251,-8.13342 6.01414,-10.97594 1.88189,-1.86931 3.36258,-2.76948 5.48459,-3.33428 3.912,-1.04122 7.70838,0.67127 9.40285,4.24147 0.80899,1.7045 1.0227,4.79067 0.47877,6.91385 -1.49328,5.82883 -7.97775,12.77339 -15.58442,16.69019 -0.96902,0.49896 -1.82537,0.90742 -1.90301,0.90767 -0.0776,2.3e-4 -0.50656,-0.37407 -0.95317,-0.83186 z"
       id="path929"
       inkscape:connector-curvature="0" />
  </g>
</svg>
