<?xml version="1.0" encoding="UTF-8" standalone="no"?>
<svg
   xmlns:dc="http://purl.org/dc/elements/1.1/"
   xmlns:cc="http://creativecommons.org/ns#"
   xmlns:rdf="http://www.w3.org/1999/02/22-rdf-syntax-ns#"
   xmlns:svg="http://www.w3.org/2000/svg"
   xmlns="http://www.w3.org/2000/svg"
   xmlns:sodipodi="http://sodipodi.sourceforge.net/DTD/sodipodi-0.dtd"
   xmlns:inkscape="http://www.inkscape.org/namespaces/inkscape"
   version="1.1"
   width="72"
   height="72"
   viewBox="0 0 72 72"
   id="svg4"
   sodipodi:docname="fedora.svg"
   inkscape:version="0.92.4 5da689c313, 2019-01-14">
  <metadata
     id="metadata10">
    <rdf:RDF>
      <cc:Work
         rdf:about="">
        <dc:format>image/svg+xml</dc:format>
        <dc:type
           rdf:resource="http://purl.org/dc/dcmitype/StillImage" />
        <dc:title></dc:title>
      </cc:Work>
    </rdf:RDF>
  </metadata>
  <defs
     id="defs8" />
  <sodipodi:namedview
     pagecolor="#ffffff"
     bordercolor="#666666"
     borderopacity="1"
     objecttolerance="10"
     gridtolerance="10"
     guidetolerance="10"
     inkscape:pageopacity="0"
     inkscape:pageshadow="2"
     inkscape:window-width="1920"
     inkscape:window-height="1051"
     id="namedview6"
     showgrid="false"
     inkscape:zoom="11.313709"
     inkscape:cx="42.90268"
     inkscape:cy="36.163233"
     inkscape:window-x="0"
     inkscape:window-y="0"
     inkscape:window-maximized="1"
     inkscape:current-layer="svg4"
     showguides="true"
     fit-margin-top="-2.7755576e-17"
     inkscape:guide-bbox="true">
    <sodipodi:guide
       position="17.999763,72.174329"
       orientation="1,0"
       id="guide906"
       inkscape:locked="false" />
    <sodipodi:guide
       position="54,57.762712"
       orientation="1,0"
       id="guide908"
       inkscape:locked="false" />
    <sodipodi:guide
       position="13.220339,54"
       orientation="0,1"
       id="guide910"
       inkscape:locked="false" />
    <sodipodi:guide
       position="14.338983,18"
       orientation="0,1"
       id="guide912"
       inkscape:locked="false" />
  </sodipodi:namedview>
  <path
     d="m 22.318136,54 c -2.394142,0 -4.320254,-1.926113 -4.320254,-4.320254 V 35.99894 c 0,-9.936584 8.064475,-18.001059 18.001059,-18.001059 9.936586,0 18.00106,8.064475 18.00106,18.001059 C 54.000001,45.935526 45.935527,54 35.998941,54 H 22.318136 M 41.219249,22.318135 c -4.680276,0 -8.460499,3.780222 -8.460499,8.460499 v 4.500264 h -3.420201 c -1.098064,0 -1.980116,0.882053 -1.980116,1.980117 0,1.098065 0.882052,1.980117 1.980116,1.980117 h 2.700159 c 0.360021,0 0.720042,0.360021 0.720042,0.720042 v 3.780223 c 0,2.484146 -2.016118,4.500264 -4.500265,4.500264 -0.270015,0 -0.52203,-0.01799 -0.774044,-0.07201 -0.144009,-0.036 -0.306018,-0.05401 -0.486029,-0.05401 -1.062063,0 -1.962116,0.900053 -1.962116,1.980117 0,0.972057 0.702041,1.764104 1.602095,1.944115 v 0 c 0.52203,0.108006 1.062062,0.162009 1.620094,0.162009 4.680276,0 8.460498,-3.780222 8.460498,-8.460498 V 39.23912 h 3.420203 c 1.098064,0 1.980116,-0.882053 1.980116,-1.980117 0,-1.098064 -0.882052,-1.980118 -1.980116,-1.980118 h -2.700159 c -0.396024,0 -0.720044,-0.324019 -0.720044,-0.720041 v -3.780222 c 0,-2.484147 2.01612,-4.500266 4.500266,-4.500266 0.270016,0 0.540032,0.018 0.792047,0.07201 0.144008,0.036 0.288016,0.05401 0.450026,0.05401 1.080064,0 1.980116,-0.900053 1.980116,-1.980117 0,-0.972057 -0.70204,-1.782105 -1.602093,-1.926113 v 0 c -0.540033,-0.126008 -1.062063,-0.180011 -1.620096,-0.180011 m -14.580858,14.94088 c 0,-0.216013 0.01799,-0.432025 0.07201,-0.648038 l -0.95406,-0.954057 c -0.378023,0.108006 -0.756045,0.252015 -1.098066,0.432026 l 2.178129,2.178128 c -0.126007,-0.324018 -0.198011,-0.648038 -0.198011,-1.008059 m -0.468028,10.440614 h -0.126007 0.05401 0.07201 m -1.674099,2.394141 c 0,-0.414024 0.108006,-0.810047 0.288017,-1.152067 L 19.797991,43.95541 c 0,0.612035 0.09001,1.188069 0.234014,1.764103 l 4.464262,4.464264 v -0.09001 m 0.450027,1.440086 c -0.16201,-0.234015 -0.270016,-0.468028 -0.342021,-0.738044 l -4.374257,-4.374257 c 0.774045,2.304136 2.502148,4.158245 4.716278,5.112302 M 42.839345,37.259015 c 0,0.216013 -0.01799,0.432025 -0.07201,0.648038 l 0.954056,0.954056 c 0.378023,-0.108006 0.756045,-0.252015 1.098065,-0.432025 L 42.64133,36.250955 c 0.126008,0.324019 0.198013,0.648038 0.198013,1.00806 m 0.468027,-10.476618 0.126007,0.07201 -0.09001,-0.07201 h -0.036 m 1.692099,-2.358138 c 0,0.414025 -0.126007,0.774046 -0.306018,1.152068 l 4.986294,5.022296 c -0.01799,-0.648038 -0.09001,-1.224072 -0.234014,-1.800106 l -4.44626,-4.500266 v 0.126008 m -0.468027,-1.440085 c 0.162009,0.234015 0.270017,0.468028 0.34202,0.738044 l 4.374257,4.374257 c -0.774046,-2.304136 -2.502146,-4.158244 -4.716277,-5.112301 m -1.20607,15.984941 -0.684042,-0.684039 c -0.144007,0.342019 -0.34202,0.648038 -0.612036,0.918052 v 0 c 0.450027,-0.036 0.882053,-0.126006 1.296078,-0.234013 m 3.888228,-2.21413 -2.808166,-2.808166 c -0.252014,0.252016 -0.540032,0.486029 -0.846049,0.684041 l 2.844168,2.844168 c 0.288016,-0.234014 0.558032,-0.468029 0.810047,-0.720043 m -1.098065,0.936055 -2.916171,-2.880169 c -0.32402,0.180011 -0.702041,0.288017 -1.098066,0.378022 l 3.060182,3.078181 c 0.324018,-0.18001 0.648038,-0.378022 0.954055,-0.576034 m 2.03412,-2.05212 -2.880169,-2.880171 c -0.180011,0.342021 -0.378023,0.648039 -0.612036,0.918055 l 2.808165,2.808165 c 0.234013,-0.270016 0.468028,-0.540032 0.68404,-0.846049 m 0.738043,-1.278076 -3.186188,-3.186188 c -0.036,0.432026 -0.126008,0.84605 -0.288017,1.224072 l 2.934174,2.934174 c 0.198011,-0.306018 0.378022,-0.630038 0.540031,-0.972058 m 0.792047,-3.294193 -5.184305,-5.184306 c -0.216013,0.306018 -0.486029,0.558032 -0.792047,0.738043 l 5.796341,5.77834 c 0.108006,-0.414024 0.162009,-0.900052 0.180011,-1.332077 m -0.252015,1.782105 -4.284252,-4.284254 c 0.34202,0.630038 0.558032,1.35008 0.576034,2.106125 l 3.330197,3.330196 c 0.144008,-0.378022 0.270014,-0.756045 0.378021,-1.152067 M 23.07418,37.043002 c -0.288017,0.234014 -0.576034,0.468028 -0.810048,0.756045 l 2.808165,2.772163 c 0.252016,-0.252016 0.540033,-0.486029 0.846051,-0.68404 l -2.844167,-2.844168 m 1.224071,-0.792047 c -0.306017,0.18001 -0.630037,0.378023 -0.900052,0.576035 l 2.844167,2.88017 c 0.360021,-0.180012 0.756045,-0.306019 1.134066,-0.378024 l -3.078181,-3.078181 m 3.150186,-0.936054 c -0.450026,0.036 -0.882052,0.126006 -1.296076,0.234013 l 0.684041,0.684041 c 0.162009,-0.342021 0.36002,-0.64804 0.612035,-0.918054 v 0 m -7.48844,6.768398 c -0.09001,0.450027 -0.16201,0.900053 -0.16201,1.368079 l 5.184305,5.148304 c 0.216013,-0.270016 0.486029,-0.52203 0.792046,-0.702041 l -5.814341,-5.814342 m 1.170068,-2.898171 c -0.198012,0.306018 -0.378022,0.630037 -0.540031,0.972057 l 3.186187,3.186188 c 0.036,-0.432025 0.126007,-0.846049 0.288017,-1.224072 l -2.934173,-2.934173 m -0.702041,1.314077 c -0.144009,0.396024 -0.270016,0.774046 -0.378023,1.17007 l 4.24825,4.284252 c -0.306017,-0.630037 -0.52203,-1.35008 -0.540031,-2.106124 l -3.330196,-3.348198 m 1.584093,-2.466145 c -0.234014,0.270017 -0.468028,0.540033 -0.68404,0.84605 l 2.88017,2.88017 c 0.18001,-0.360021 0.378022,-0.648039 0.612035,-0.918054 z"
     id="path2"
     style="fill:#ffffff;stroke-width:1.80010605"
     inkscape:connector-curvature="0" />
</svg>
