<?xml version="1.0" encoding="UTF-8" standalone="no"?>
<svg
   xmlns:dc="http://purl.org/dc/elements/1.1/"
   xmlns:cc="http://creativecommons.org/ns#"
   xmlns:rdf="http://www.w3.org/1999/02/22-rdf-syntax-ns#"
   xmlns:svg="http://www.w3.org/2000/svg"
   xmlns="http://www.w3.org/2000/svg"
   xmlns:sodipodi="http://sodipodi.sourceforge.net/DTD/sodipodi-0.dtd"
   xmlns:inkscape="http://www.inkscape.org/namespaces/inkscape"
   id="svg4"
   viewBox="0 0 72 72"
   height="72"
   width="72"
   version="1.1"
   sodipodi:docname="fedora.svg"
   inkscape:version="0.92.4 5da689c313, 2019-01-14">
  <sodipodi:namedview
     pagecolor="#ffffff"
     bordercolor="#666666"
     borderopacity="1"
     objecttolerance="10"
     gridtolerance="10"
     guidetolerance="10"
     inkscape:pageopacity="0"
     inkscape:pageshadow="2"
     inkscape:window-width="1876"
     inkscape:window-height="1027"
     id="namedview6"
     showgrid="false"
     inkscape:zoom="11.819444"
     inkscape:cx="36"
     inkscape:cy="36"
     inkscape:window-x="44"
     inkscape:window-y="25"
     inkscape:window-maximized="1"
     inkscape:current-layer="svg4" />
  <metadata
     id="metadata10">
    <rdf:RDF>
      <cc:Work
         rdf:about="">
        <dc:format>image/svg+xml</dc:format>
        <dc:type
           rdf:resource="http://purl.org/dc/dcmitype/StillImage" />
        <dc:title />
      </cc:Work>
    </rdf:RDF>
  </metadata>
  <defs
     id="defs8" />
  <path
     style="fill:#000000;stroke-width:1.80000019"
     id="path2"
     d="M 22.320001,54 C 19.925999,54 18,52.074 18,49.68 V 36 c 0,-9.935999 8.064,-18 18,-18 9.936004,0 18,8.064 18,18 0,9.936001 -8.063999,18 -18,18 H 22.320001 M 41.220002,22.32 c -4.680002,0 -8.460003,3.779999 -8.460003,8.460001 v 4.5 H 29.34 c -1.098,0 -1.98,0.882 -1.98,1.98 0,1.098 0.882001,1.980001 1.98,1.980001 h 2.7 c 0.36,0 0.719999,0.360001 0.719999,0.719998 v 3.780001 c 0,2.484001 -2.015999,4.5 -4.5,4.5 -0.269999,0 -0.521999,-0.01799 -0.773998,-0.07201 -0.144001,-0.03599 -0.305999,-0.054 -0.486001,-0.054 -1.061999,0 -1.962,0.9 -1.962,1.980001 0,0.972 0.701999,1.764 1.602,1.943999 v 0 c 0.522,0.108001 1.062,0.161999 1.619999,0.161999 4.680001,0 8.46,-3.780001 8.46,-8.460001 V 39.23999 h 3.420003 c 1.097999,0 1.979999,-0.882001 1.979999,-1.980001 0,-1.098 -0.882,-1.98 -1.979999,-1.98 h -2.7 c -0.396001,0 -0.720003,-0.324 -0.720003,-0.72 v -3.779998 c 0,-2.484001 2.016002,-4.500001 4.500002,-4.500001 0.27,0 0.539999,0.018 0.792,0.07201 0.143999,0.036 0.287999,0.05401 0.45,0.05401 1.080001,0 1.98,-0.9 1.98,-1.98 0,-0.972 -0.701999,-1.782 -1.601999,-1.926 v 0 C 42.300001,22.374 41.778001,22.32 41.220003,22.32 M 26.640001,37.260001 c 0,-0.215999 0.01799,-0.432 0.07201,-0.648 l -0.954004,-0.954 c -0.378,0.108001 -0.756,0.252 -1.098001,0.432 l 2.178001,2.178001 c -0.126,-0.324 -0.198,-0.648 -0.198,-1.008001 M 26.172007,47.7 h -0.125999 0.05401 0.07201 m -1.674,2.394 c 0,-0.414 0.108,-0.809999 0.288001,-1.151999 l -4.986024,-4.986 c 0,0.611999 0.09,1.187999 0.234,1.763999 l 4.464,4.464002 v -0.09 m 0.45,1.440001 c -0.162,-0.234001 -0.27,-0.468 -0.342001,-0.737999 l -4.373999,-4.374 c 0.773999,2.304 2.502,4.158 4.716,5.112001 M 42.840001,37.260001 c 0,0.216 -0.01799,0.432001 -0.07201,0.648 l 0.953999,0.954 c 0.378001,-0.108001 0.756,-0.252 1.098001,-0.432001 l -2.177998,-2.177999 c 0.126,0.323999 0.198001,0.647999 0.198001,1.008 m 0.467999,-10.476002 0.126001,0.07201 -0.09001,-0.07201 h -0.036 m 1.692,-2.357999 c 0,0.414 -0.126,0.774 -0.306,1.152 l 4.986,5.022 c -0.01799,-0.648 -0.09,-1.224 -0.233999,-1.8 L 44.999987,24.299999 V 24.426 m -0.468,-1.44 c 0.161999,0.234001 0.270001,0.468 0.342001,0.738 l 4.374,4.374 c -0.774003,-2.304001 -2.502,-4.158 -4.716001,-5.112 M 43.325988,38.97 42.641987,38.286001 c -0.144001,0.341999 -0.342001,0.648 -0.612001,0.917999 v 0 c 0.450001,-0.036 0.882,-0.125997 1.296002,-0.233998 m 3.887998,-2.213999 -2.808,-2.808001 c -0.251999,0.252 -0.540001,0.486002 -0.846,0.684002 l 2.844,2.843999 c 0.288,-0.234002 0.558,-0.468002 0.81,-0.72 m -1.098,0.936002 -2.915998,-2.880001 c -0.324002,0.180001 -0.702002,0.288001 -1.098002,0.378 l 3.06,3.078001 c 0.324,-0.18 0.648,-0.378001 0.954,-0.576 m 2.034,-2.052 -2.879998,-2.880001 c -0.180002,0.342002 -0.378002,0.648 -0.612,0.918002 l 2.808,2.808 c 0.234,-0.27 0.468001,-0.54 0.683998,-0.845999 m 0.738,-1.278001 -3.186001,-3.186001 c -0.036,0.432001 -0.125999,0.846001 -0.287999,1.224 l 2.934002,2.934002 c 0.198,-0.306001 0.378,-0.630001 0.539998,-0.972001 m 0.792,-3.293999 -5.183998,-5.184001 c -0.216002,0.306 -0.486002,0.557999 -0.792002,0.737999 l 5.796001,5.778 c 0.107999,-0.413999 0.161999,-0.899999 0.179999,-1.331998 m -0.251999,1.782 -4.284,-4.284002 c 0.342,0.630001 0.557998,1.350001 0.576,2.106001 l 3.33,3.33 c 0.143999,-0.378001 0.269998,-0.756 0.378,-1.152 m -26.351999,4.193996 c -0.288,0.234001 -0.576,0.468 -0.81,0.756001 l 2.808,2.771999 C 25.326,40.32 25.614,40.086001 25.92,39.888002 l -2.844,-2.844001 m 1.223999,-0.791999 c -0.305999,0.179999 -0.63,0.377999 -0.899998,0.576 l 2.843999,2.88 C 26.604,39.528 27,39.402 27.377999,39.33 l -3.078,-3.077999 m 3.150002,-0.935999 C 27,35.352 26.568,35.441999 26.154001,35.55 l 0.684001,0.684001 C 27,35.892 27.198001,35.585999 27.450001,35.316002 v 0 M 19.962003,42.084 c -0.09,0.450001 -0.162002,0.9 -0.162002,1.368 l 5.184001,5.148002 c 0.215999,-0.270001 0.485998,-0.521999 0.791997,-0.702 l -5.813998,-5.814001 m 1.169999,-2.898 c -0.198001,0.306001 -0.378,0.630001 -0.54,0.972 l 3.186,3.186 c 0.036,-0.431999 0.125999,-0.845999 0.288,-1.223999 l -2.934,-2.934001 m -0.702,1.314 c -0.144001,0.396 -0.27,0.774 -0.378001,1.170001 l 4.248,4.284001 C 23.994,45.324002 23.778,44.604001 23.76,43.848002 l -3.33,-3.348001 m 1.584,-2.465999 c -0.234,0.270001 -0.468001,0.540001 -0.684,0.845999 l 2.88,2.88 c 0.18,-0.359999 0.378,-0.647999 0.611999,-0.917999 z" />
</svg>
