<?xml version="1.0" encoding="UTF-8" standalone="no"?>
<svg
   xmlns:dc="http://purl.org/dc/elements/1.1/"
   xmlns:cc="http://creativecommons.org/ns#"
   xmlns:rdf="http://www.w3.org/1999/02/22-rdf-syntax-ns#"
   xmlns:svg="http://www.w3.org/2000/svg"
   xmlns="http://www.w3.org/2000/svg"
   id="svg4"
   viewBox="0 0 72 72"
   height="72"
   width="72"
   version="1.1">
  <metadata
     id="metadata10">
    <rdf:RDF>
      <cc:Work
         rdf:about="">
        <dc:format>image/svg+xml</dc:format>
        <dc:type
           rdf:resource="http://purl.org/dc/dcmitype/StillImage" />
        <dc:title></dc:title>
      </cc:Work>
    </rdf:RDF>
  </metadata>
  <defs
     id="defs8" />
  <path
     style="stroke-width:1.80002367;fill:#ffffff"
     id="path2-6"
     d="m 17.999763,20.213792 v 6.426085 h 2.700036 c 1.962025,0 2.30403,1.314017 2.30403,3.150041 v 11.35815 c 0,5.868077 5.166068,10.63814 11.520152,10.63814 h 15.696206 c 1.980026,0 3.78005,-1.260017 3.78005,-3.186042 V 30.959934 c 0,-5.886078 -5.166068,-10.656141 -11.520152,-10.656141 h -6.606087 v -0.018 l -17.874235,-0.072 v 0 m 8.316109,4.014053 h 3.150042 v 16.182213 c 0,2.160029 1.476019,3.852051 3.222042,3.852051 l 10.746142,0.036 c 2.25003,0 3.996052,-1.54802 3.996052,-3.384044 l -0.018,-8.586113 c 0,-0.558008 -0.180002,-0.990013 -0.612008,-1.386019 -0.378005,-0.414005 -0.79201,-0.594007 -1.350018,-0.594007 -0.558007,0 -0.972012,0.180002 -1.350017,0.594007 -0.414006,0.396006 -0.612008,0.828011 -0.612008,1.386019 v 7.362097 h -3.330044 v -7.362097 c 0,-0.558008 -0.180003,-0.990013 -0.558008,-1.386019 -0.414005,-0.414005 -0.828011,-0.594007 -1.404018,-0.594007 -0.540007,0 -0.972013,0.180002 -1.368018,0.594007 -0.396005,0.396006 -0.576008,0.828011 -0.576008,1.386019 v 7.362097 h -3.330044 v -7.362097 c 0,-1.45802 0.522007,-2.736036 1.548021,-3.78005 1.026013,-1.026014 2.30403,-1.54802 3.726049,-1.54802 1.404018,0 2.628035,0.504006 3.636048,1.476019 0.990013,-0.972013 2.214029,-1.476019 3.618047,-1.476019 1.440019,0 2.718036,0.522006 3.726049,1.54802 1.026014,1.044014 1.566021,2.32203 1.566021,3.78005 l 0.018,9.180121 c -0.162002,1.53002 -0.81001,2.898038 -1.926025,4.050053 v 0 c -1.314017,1.314017 -2.934039,1.998026 -4.734062,1.998026 H 32.093949 C 30.599929,47.41215 29.321912,46.710141 28.241898,45.648127 26.999882,44.37011 26.315872,42.82209 26.315872,41.022066 Z" />
</svg>
