<?xml version="1.0" encoding="UTF-8" standalone="no"?>
<!DOCTYPE svg PUBLIC "-//W3C//DTD SVG 1.1//EN" "http://www.w3.org/Graphics/SVG/1.1/DTD/svg11.dtd">
<svg version="1.1" xmlns="http://www.w3.org/2000/svg" xmlns:xlink="http://www.w3.org/1999/xlink" preserveAspectRatio="xMidYMid meet" viewBox="0 0 72 72" width="72" height="72"><defs><path d="M49.72 30.27C47.6 27.18 44.3 26.75 43.13 26.71C40.33 26.42 37.66 28.36 36.24 28.36C34.82 28.36 32.62 26.75 30.3 26.79C27.24 26.83 24.42 28.57 22.85 31.3C19.67 36.81 22.04 44.97 25.13 49.44C26.64 51.63 28.45 54.09 30.81 54C33.09 53.91 33.95 52.52 36.71 52.52C39.47 52.52 40.24 54 42.66 53.95C45.11 53.91 46.67 51.72 48.17 49.53C49.9 46.99 50.62 44.53 50.66 44.41C50.61 44.39 45.88 42.57 45.83 37.13C45.78 32.57 49.55 30.38 49.72 30.27Z" id="c19Wv8rjHb"></path><path d="M43.17 18C41.36 18.07 39.17 19.2 37.87 20.73C36.7 22.08 35.68 24.23 35.95 26.3C37.97 26.45 40.04 25.27 41.3 23.75C42.55 22.22 43.4 20.11 43.17 18Z" id="bBKiuKDma"></path></defs><g><g><g><use xlink:href="#c19Wv8rjHb" opacity="1" fill="#000000" fill-opacity="1"></use><g><use xlink:href="#c19Wv8rjHb" opacity="1" fill-opacity="0" stroke="#000000" stroke-width="1" stroke-opacity="0"></use></g></g><g><use xlink:href="#bBKiuKDma" opacity="1" fill="#000000" fill-opacity="1"></use><g><use xlink:href="#bBKiuKDma" opacity="1" fill-opacity="0" stroke="#000000" stroke-width="1" stroke-opacity="0"></use></g></g></g></g></svg>