<?xml version="1.0" encoding="UTF-8" standalone="no"?>
<!-- Created with Inkscape (http://www.inkscape.org/) -->

<svg
   xmlns:dc="http://purl.org/dc/elements/1.1/"
   xmlns:cc="http://creativecommons.org/ns#"
   xmlns:rdf="http://www.w3.org/1999/02/22-rdf-syntax-ns#"
   xmlns:svg="http://www.w3.org/2000/svg"
   xmlns="http://www.w3.org/2000/svg"
   xmlns:sodipodi="http://sodipodi.sourceforge.net/DTD/sodipodi-0.dtd"
   xmlns:inkscape="http://www.inkscape.org/namespaces/inkscape"
   width="72"
   height="72"
   version="1.0"
   id="svg6"
   sodipodi:docname="solus.svg"
   inkscape:version="0.92.4 5da689c313, 2019-01-14"
   inkscape:export-filename="/home/rastik/bin/matter/Matter/icons/solus.png"
   inkscape:export-xdpi="96"
   inkscape:export-ydpi="96">
  <defs
     id="defs10" />
  <sodipodi:namedview
     pagecolor="#ffffff"
     bordercolor="#666666"
     borderopacity="1"
     objecttolerance="10"
     gridtolerance="10"
     guidetolerance="10"
     inkscape:pageopacity="0"
     inkscape:pageshadow="2"
     inkscape:window-width="1876"
     inkscape:window-height="1027"
     id="namedview8"
     showgrid="false"
     inkscape:zoom="3.2777778"
     inkscape:cx="-58.590627"
     inkscape:cy="54.584739"
     inkscape:window-x="44"
     inkscape:window-y="25"
     inkscape:window-maximized="1"
     inkscape:current-layer="svg6" />
  <metadata
     id="metadata2">
    <rdf:RDF>
      <cc:Work
         rdf:about="">
        <dc:format>image/svg+xml</dc:format>
        <dc:type
           rdf:resource="http://purl.org/dc/dcmitype/StillImage" />
        <dc:title />
      </cc:Work>
    </rdf:RDF>
  </metadata>
  <path
     inkscape:connector-curvature="0"
     id="path1098"
     d="m 34.28927,53.962569 c -4.03983,-0.437677 -7.797,-2.146039 -10.63644,-4.836321 -0.58085,-0.550323 -1.62318,-1.69364 -1.57947,-1.732463 0.0133,-0.01185 0.3934,0.0078 0.84449,0.04377 7.45094,0.593976 14.66789,0.391043 19.3371,-0.543739 3.51893,-0.704492 7.18915,-2.193256 9.85425,-3.997209 0.38051,-0.257564 0.69185,-0.437684 0.69185,-0.400265 0,0.14707 -0.70396,1.66435 -1.06224,2.289502 -1.48573,2.592375 -3.35694,4.611635 -5.7441,6.198582 -2.19081,1.456414 -4.40118,2.336947 -7.04034,2.804614 -0.73658,0.130522 -1.27627,0.168253 -2.64564,0.184951 -0.94614,0.01154 -1.85491,0.0063 -2.01946,-0.01146 z m -5.64168,-7.433673 c -1.12832,-0.03229 -2.64293,-0.09701 -3.36578,-0.143887 -1.64602,-0.106723 -4.22277,-0.304112 -4.23462,-0.324397 -0.004,-0.0083 -0.1717,-0.279628 -0.37068,-0.602761 -0.19899,-0.323142 -0.53631,-0.928984 -0.74964,-1.346312 -0.37264,-0.729077 -0.40071,-0.762697 -0.7166,-0.85842 -0.52028,-0.157659 -1.11291,-0.398862 -1.15758,-0.47114 -0.0225,-0.03636 0.13142,-0.38491 0.34204,-0.774463 l 0.38295,-0.708278 -0.22131,-0.880524 c -0.42105,-1.675188 -0.49743,-2.350196 -0.49743,-4.395891 0,-2.320664 0.1785,-3.548518 0.79737,-5.484772 0.88454,-2.767508 2.33057,-5.123672 4.43768,-7.230794 1.46028,-1.460268 2.80506,-2.442708 4.60464,-3.363947 l 0.78968,-0.404255 0.3625,-1.1449 c 0.48789,-1.54101 0.46485,-1.486043 0.60112,-1.433749 0.0643,0.02468 0.40613,0.429923 0.75961,0.900549 0.40247,0.535829 0.68001,0.841375 0.7425,0.817399 0.2078,-0.07974 1.43298,-0.353172 2.08374,-0.465049 0.923,-0.158671 3.54151,-0.221457 4.61492,-0.110662 7.34227,0.757884 13.55691,6.012353 15.50034,13.105494 0.35435,1.293336 0.56747,2.603345 0.619,3.804958 l 0.0434,1.009728 0.56027,0.57078 0.5603,0.570772 -0.35211,0.681735 c -1.09018,2.110774 -2.32959,3.47552 -4.36114,4.802147 -4.39303,2.868711 -11.68987,4.169115 -21.77509,3.880639 z M 42.62892,44.06035 c 0.95414,-0.108135 2.04465,-0.328212 2.96753,-0.598885 0.77707,-0.227908 2.30796,-0.829186 2.43525,-0.956478 0.0949,-0.09483 -0.89395,-2.038126 -1.65632,-3.25529 -1.01486,-1.620235 -2.20932,-3.203639 -3.70364,-4.909715 -1.33156,-1.520213 -4.02084,-4.149288 -5.19793,-5.081557 l -0.31578,-0.250105 0.12779,0.291057 c 1.01873,2.320642 1.53246,4.013728 1.83422,6.045215 0.40513,2.727357 0.20099,5.583507 -0.56936,7.966448 -0.14294,0.442131 -0.25987,0.831223 -0.25987,0.864657 0,0.07952 3.42142,-0.01146 4.33811,-0.115347 z m -5.8023,-0.277539 C 36.80682,43.587414 36.63969,41.239779 36.45525,38.565857 35.77301,28.67449 35.75842,28.500682 35.58263,28.169334 35.1855,27.420837 34.18857,25.82094 32.83282,23.756426 c -0.81044,-1.234118 -1.75374,-2.706808 -2.0962,-3.27264 -0.34247,-0.565837 -0.63036,-1.020219 -0.63972,-1.009734 -0.0102,0.01047 -0.10772,0.355636 -0.21855,0.767008 -1.30526,4.844966 -4.25426,11.212454 -9.36186,20.21398 -0.42617,0.751095 -0.77486,1.392313 -0.77486,1.424934 0,0.08779 2.82503,0.73816 3.77715,0.869571 1.48835,0.205415 3.97959,0.482459 8.07786,0.89833 2.22143,0.225418 4.15673,0.422539 4.30072,0.438065 0.14399,0.01552 0.42009,0.03356 0.61354,0.04018 l 0.35175,0.01201 z m 13.05371,-2.227904 c 0.7869,-0.485144 1.3869,-0.981189 2.12499,-1.756798 0.58905,-0.618981 1.69366,-2.150329 1.69299,-2.347013 -1.5e-4,-0.0451 -0.19368,-0.237917 -0.43006,-0.42854 -1.48287,-1.195762 -4.05266,-2.494589 -6.78738,-3.430479 -1.26734,-0.433712 -3.79244,-1.206458 -3.82757,-1.171325 -0.0126,0.01271 0.48862,0.373995 1.11405,0.802855 2.84434,1.950344 3.94178,3.030861 4.73553,4.662481 0.49238,1.012155 0.71755,1.961987 0.73294,3.091649 0.006,0.503798 0.0308,0.916101 0.0532,0.916243 0.0225,1.47e-4 0.28849,-0.152439 0.59119,-0.339073 z"
     style="fill:#ffffff;stroke-width:0.07479507" />
</svg>
