<?xml version="1.0" encoding="UTF-8" standalone="no"?>
<!-- Created with Inkscape (http://www.inkscape.org/) -->

<svg
   xmlns:dc="http://purl.org/dc/elements/1.1/"
   xmlns:cc="http://creativecommons.org/ns#"
   xmlns:rdf="http://www.w3.org/1999/02/22-rdf-syntax-ns#"
   xmlns:svg="http://www.w3.org/2000/svg"
   xmlns="http://www.w3.org/2000/svg"
   xmlns:sodipodi="http://sodipodi.sourceforge.net/DTD/sodipodi-0.dtd"
   xmlns:inkscape="http://www.inkscape.org/namespaces/inkscape"
   width="72"
   height="72"
   version="1.0"
   id="svg6"
   sodipodi:docname="template.svg"
   inkscape:version="0.92.4 5da689c313, 2019-01-14">
  <defs
     id="defs10" />
  <sodipodi:namedview
     pagecolor="#ffffff"
     bordercolor="#666666"
     borderopacity="1"
     objecttolerance="10"
     gridtolerance="10"
     guidetolerance="10"
     inkscape:pageopacity="0"
     inkscape:pageshadow="2"
     inkscape:window-width="1876"
     inkscape:window-height="1027"
     id="namedview8"
     showgrid="false"
     inkscape:zoom="2.3177389"
     inkscape:cx="-27.414006"
     inkscape:cy="9.0493538"
     inkscape:window-x="44"
     inkscape:window-y="25"
     inkscape:window-maximized="1"
     inkscape:current-layer="svg6" />
  <metadata
     id="metadata2">
    <rdf:RDF>
      <cc:Work
         rdf:about="">
        <dc:format>image/svg+xml</dc:format>
        <dc:type
           rdf:resource="http://purl.org/dc/dcmitype/StillImage" />
        <dc:title />
      </cc:Work>
    </rdf:RDF>
  </metadata>
  <path
     d="m 187.14372,17.996505 c -1.6026,3.9292 -2.5693,6.4994 -4.3536,10.312 1.094,1.1597 2.4369,2.5101 4.6176,4.0354 -2.3446,-0.96477 -3.9438,-1.9334 -5.139,-2.9385 -2.2836,4.7651 -5.8613,11.553 -13.122,24.598 5.7064,-3.2944 10.13,-5.3254 14.252,-6.1004 -0.17702,-0.76137 -0.27767,-1.5849 -0.27083,-2.4442 l 0.007,-0.18281 c 0.0906,-3.6559 1.9924,-6.4674 4.2453,-6.2765 2.2529,0.19089 4.004,3.3111 3.9135,6.9671 -0.017,0.68794 -0.0946,1.3497 -0.2302,1.9635 4.0777,0.79768 8.4539,2.8235 14.083,6.0734 -1.11,-2.0435 -2.1007,-3.8856 -3.0468,-5.64 -1.4903,-1.1551 -3.0448,-2.6584 -6.2155,-4.2859 2.1794,0.5663 3.7399,1.2197 4.9562,1.95 -9.6195,-17.91 -10.398,-20.29 -13.697,-28.031 z"
     id="path4"
     style="fill:#000000;fill-rule:evenodd"
     inkscape:connector-curvature="0" />
  <path
     style="fill:#000000;fill-opacity:1;stroke-width:1.79999995"
     inkscape:connector-curvature="0"
     id="path2"
     d="m -6.6194254,36 a 18,18 0 0 1 -17.9999996,18 18,18 0 0 1 -18,-18 18,18 0 0 1 18,-18 18,18 0 0 1 17.9999996,18 M -20.407425,28.332 c 1.044,0.594 2.358,0.234 2.988,-0.792 0.558,-1.026 0.216,-2.34 -0.828,-2.952 -1.026,-0.594 -2.358,-0.288 -2.952,0.792 -0.594,1.026 -0.234,2.358 0.792,2.952 m -4.428,13.968 c -0.954,0 -1.854,-0.198 -2.646,-0.576 l -1.512,2.7 c 1.26,0.576 2.664,0.972 4.158,0.972 0.882,0 1.71,-0.126 2.52,-0.342 0.144,-0.882 0.648,-1.674 1.476,-2.142 0.828,-0.486 1.764,-0.522 2.592,-0.216 1.602,-1.566 2.628,-3.708 2.79,-6.102 l -3.078,-0.036 c -0.288,3.222 -2.988,5.742 -6.3,5.742 m 0,-12.6 c 3.312,0 6.012,2.502 6.3,5.742 l 3.078,-0.054 c -0.162,-2.376 -1.188,-4.518 -2.79,-6.084 -0.828,0.306 -1.782,0.252 -2.592,-0.216 -0.828,-0.468 -1.332,-1.278 -1.476,-2.142 -0.81,-0.216 -1.638,-0.342 -2.52,-0.342 -1.494,0 -2.898,0.342 -4.158,0.972 l 1.512,2.7 c 0.792,-0.378 1.692,-0.576 2.646,-0.576 m -6.318,6.3 c 0,-2.142 1.062,-4.032 2.682,-5.166 l -1.548,-2.664 c -1.908,1.278 -3.33,3.204 -3.906,5.472 0.684,0.558 1.116,1.404 1.116,2.358 0,0.954 -0.432,1.8 -1.116,2.358 0.576,2.25 1.998,4.194 3.906,5.454 l 1.548,-2.646 c -1.62,-1.134 -2.682,-3.024 -2.682,-5.166 m 10.746,7.668 c -1.026,0.594 -1.386,1.908 -0.792,2.952 0.594,1.026 1.926,1.386 2.952,0.792 1.044,-0.612 1.386,-1.926 0.828,-2.952 -0.63,-1.044 -1.944,-1.386 -2.988,-0.792 m -15.444,-9.828 c -1.188,0 -2.16,0.972 -2.16,2.16 0,1.188 0.972,2.16 2.16,2.16 1.206,0 2.16,-0.972 2.16,-2.16 0,-1.188 -0.954,-2.16 -2.16,-2.16 z" />
  <path
     style="fill:#000000;fill-opacity:1;stroke-width:1.89473689"
     inkscape:connector-curvature="0"
     id="path2-6"
     d="M 84.289396,35.052632 V 25.105263 L 95.657817,22.604211 V 34.882105 L 84.289396,35.052632 M 116.49992,18 V 34.578947 L 97.552554,34.863158 V 22.187368 L 116.49992,18 M 84.289396,36.947368 95.657817,37.117895 V 50.021053 L 84.289396,47.842105 V 36.947368 m 32.210524,0.473685 V 54 L 97.552554,50.381053 V 37.136842 Z" />
  <path
     style="fill:#000000;stroke-width:0.62749726"
     d="m 126.66622,44.157459 v -9.412458 h 4.39248 4.39248 v 9.412458 9.412467 h -4.39248 -4.39248 z m 11.29495,-2.509982 V 29.72503 h 4.39248 4.39248 v 11.922447 11.922449 h -4.39248 -4.39248 z m 11.29495,-5.647483 V 18.430075 h 4.39248 4.39248 v 17.569919 17.569932 h -4.39248 -4.39248 z m -22.5899,-10.667449 v -6.90247 h 10.03995 10.03996 v 4.39248 4.392482 h -5.64747 -5.64748 v 2.509993 2.509981 h -4.39248 -4.39248 z"
     id="path840"
     inkscape:connector-curvature="0" />
  <path
     style="fill:#000000;stroke-width:0.07043128"
     d="m -71.457144,53.993279 c -2.596811,-0.26492 -4.53136,-0.79043 -6.561392,-1.78236 -1.865297,-0.91144 -3.180265,-1.83648 -4.663175,-3.28039 -1.606365,-1.56412 -2.622649,-2.94979 -3.594823,-4.90144 -2.007181,-4.02944 -2.437511,-8.47488 -1.242211,-12.832369 1.329008,-4.844927 4.734931,-9.002459 9.228519,-11.265041 5.069077,-2.552347 10.950386,-2.598811 16.01277,-0.126504 1.835022,0.896166 3.183674,1.845983 4.649897,3.274793 1.596806,1.556065 2.647936,2.98807 3.597654,4.901264 0.893791,1.800529 1.456322,3.610098 1.738994,5.594048 0.175334,1.230567 0.176572,3.655109 0.0025,4.859759 -0.447193,3.09447 -1.64183,5.97682 -3.511399,8.47206 -0.628755,0.83918 -2.126017,2.38686 -2.979681,3.08002 -2.482081,2.01542 -5.543598,3.36366 -8.733481,3.84609 -0.876964,0.13262 -3.263687,0.22949 -3.944149,0.16007 z m 2.218583,-5.94792 c -0.135577,-0.0326 -0.493237,-0.10682 -0.794799,-0.16475 -0.801198,-0.15393 -1.259045,-0.38995 -1.754479,-0.90443 -0.290934,-0.30212 -0.409562,-0.39015 -0.375695,-0.27879 l 0.04947,0.16275 -0.340651,-0.18507 c -0.570186,-0.30979 -0.902538,-0.49163 -0.934627,-0.51137 -0.01682,-0.0103 0.007,-0.0563 0.05281,-0.10213 0.125174,-0.12517 0.103635,-0.17053 -0.12618,-0.26573 -0.115236,-0.0477 -0.337749,-0.22589 -0.49447,-0.39591 -0.190685,-0.20688 -0.343212,-0.30913 -0.461106,-0.30913 -0.138504,0 -0.236063,-0.0927 -0.456353,-0.43351 -0.154105,-0.23843 -0.28019,-0.49098 -0.28019,-0.56124 0,-0.079 -0.03669,-0.11365 -0.09611,-0.0909 -0.142526,0.0547 -1.142333,-1.32642 -1.058457,-1.46214 0.0195,-0.0316 -0.04492,-0.16277 -0.14316,-0.29158 -0.132077,-0.17316 -0.158024,-0.25479 -0.09957,-0.31324 0.05845,-0.0585 0.02228,-0.16754 -0.138814,-0.41858 -0.119828,-0.18674 -0.269007,-0.46191 -0.331508,-0.6115 l -0.113638,-0.27197 0.196591,0.15463 c 0.251661,0.19796 0.283854,0.0949 0.09068,-0.2904 -0.189265,-0.37746 -0.477386,-0.69196 -0.633926,-0.69196 -0.065,0 -0.197294,-0.0622 -0.293979,-0.13828 -0.20313,-0.15978 -0.505716,-0.81243 -0.447275,-0.96472 0.02179,-0.0568 -0.01118,-0.20149 -0.07326,-0.32155 -0.07584,-0.14666 -0.0999,-0.31277 -0.07333,-0.50617 0.02858,-0.20792 -1.41e-4,-0.37059 -0.103466,-0.5857 -0.220052,-0.45822 -0.240797,-1.35778 -0.07009,-3.039069 l 0.14573,-1.435252 0.438722,-0.876005 c 0.350744,-0.700337 0.419082,-0.888139 0.340789,-0.936526 -0.146523,-0.09056 0.178344,-0.527099 1.055433,-1.418237 0.770493,-0.782829 1.469966,-1.294708 1.87235,-1.370194 0.129562,-0.02428 0.276073,-0.09299 0.325565,-0.152637 0.07826,-0.09429 0.0671,-0.101431 -0.08552,-0.0547 l -0.175527,0.05373 0.198814,-0.211252 c 0.286464,-0.304398 0.798441,-0.557796 1.245027,-0.616215 0.213056,-0.02787 0.466606,-0.09488 0.563448,-0.148911 0.169567,-0.0946 0.165658,-0.09687 -0.105644,-0.06119 -0.254358,0.03344 -0.264617,0.02917 -0.105644,-0.04408 0.09684,-0.04462 0.496746,-0.238615 0.888679,-0.431105 0.664358,-0.326291 0.759719,-0.353059 1.40862,-0.395412 2.470437,-0.161242 3.932174,0.185377 5.246757,1.244154 1.102524,0.887985 2.068074,2.347179 2.341578,3.53872 0.258578,1.126515 0.271969,1.253872 0.240749,2.289348 -0.01748,0.578812 -0.05572,1.11577 -0.08508,1.193241 -0.04419,0.116643 -0.03915,0.122696 0.02908,0.03521 0.135287,-0.173416 0.04183,0.46524 -0.136731,0.934212 -0.108953,0.28617 -0.212673,0.43603 -0.351474,0.50781 -0.201479,0.10418 -0.28258,0.27915 -0.284279,0.61328 -0.0012,0.20516 -0.316576,0.53895 -1.115855,1.18042 -0.446853,0.35862 -0.768861,0.49107 -0.566471,0.23301 0.05317,-0.0678 -0.04152,-0.001 -0.210451,0.14771 -0.317753,0.28035 -0.647185,0.44927 -0.979688,0.50234 -0.105741,0.0169 -0.366577,0.0817 -0.579633,0.14415 -0.804026,0.23552 -1.962404,0.0169 -2.808645,-0.53004 -1.284661,-0.83032 -1.931713,-1.97392 -2.098857,-3.709546 -0.109413,-1.136147 0.739359,-2.580317 1.845828,-3.140633 1.134077,-0.574296 2.494074,-0.540211 3.519478,0.08821 l 0.352161,0.215823 -0.340202,-0.317886 c -0.187103,-0.174835 -0.578994,-0.435908 -0.870862,-0.580154 -0.472902,-0.233719 -0.602154,-0.265401 -1.187249,-0.290988 -0.810529,-0.03545 -1.427112,0.130309 -2.06218,0.554385 -0.387307,0.258638 -0.561578,0.45313 -1.279659,1.428138 -0.192069,0.260787 -0.575121,1.273109 -0.644325,1.702813 -0.09156,0.568463 -0.01421,1.368728 0.192464,1.990988 0.288694,0.86927 0.754341,1.4943 1.671671,2.24388 0.316904,0.25894 0.626485,0.52638 0.68796,0.5943 0.151987,0.16791 0.915778,0.3948 1.664734,0.49452 1.125683,0.14987 2.286489,-0.0413 3.280904,-0.54038 0.666633,-0.33456 1.040489,-0.60189 1.645709,-1.17679 0.379683,-0.36066 0.516372,-0.45529 0.517167,-0.35802 6.07e-4,0.11099 0.01196,0.11526 0.06882,0.0266 0.03728,-0.0581 0.0502,-0.16198 0.02877,-0.23083 -0.02143,-0.0688 0.03205,-0.27186 0.118854,-0.45117 0.157316,-0.32497 0.158191,-0.32552 0.279752,-0.1754 l 0.121943,0.1506 0.04698,-0.19245 c 0.02586,-0.10584 0.172985,-0.46737 0.326955,-0.80341 0.153977,-0.33603 0.299008,-0.771822 0.322294,-0.968427 0.02331,-0.196604 0.06962,-0.357465 0.102954,-0.357465 0.03333,0 0.06205,-0.08716 0.0638,-0.193684 l 0.0031,-0.193684 0.09675,0.211294 0.09674,0.211289 0.0054,-0.298576 c 0.0031,-0.164218 0.06909,-0.465307 0.146547,-0.669099 0.168553,-0.443453 0.171066,-0.47616 0.03661,-0.47616 -0.13091,0 -0.202273,-0.272182 -0.161626,-0.616469 0.01942,-0.16446 -0.01694,-0.370098 -0.09642,-0.545649 -0.07016,-0.154949 -0.127565,-0.345112 -0.127553,-0.42259 1.9e-5,-0.129452 0.01178,-0.126599 0.144872,0.03521 l 0.144859,0.17608 -0.038,-0.1773 c -0.02088,-0.09752 -0.07473,-0.351073 -0.119624,-0.563455 -0.103052,-0.487561 -0.181422,-0.637532 -0.30781,-0.589035 -0.06965,0.02671 -0.126356,-0.04953 -0.186824,-0.25139 -0.09833,-0.328206 -0.05585,-0.402751 0.249448,-0.437662 0.25043,-0.02866 0.375561,0.156144 0.72179,1.065828 0.246,0.646358 0.317006,0.691748 0.103301,0.06604 -0.150863,-0.44173 -0.243068,-1.190752 -0.146577,-1.190752 0.03593,0 0.06534,0.03697 0.06534,0.08217 0,0.04517 0.01724,0.06491 0.03836,0.04382 0.07819,-0.07819 -0.355468,-1.009621 -0.749301,-1.609401 -0.634431,-0.966181 -1.684967,-1.991989 -2.634546,-2.572534 -0.211246,-0.12915 -0.211264,-0.129147 -0.08804,0.01447 0.208896,0.24345 0.137581,0.254822 -0.188986,0.03014 -0.171733,-0.118157 -0.331344,-0.274999 -0.354685,-0.348539 -0.05548,-0.174871 -0.322196,-0.236696 -0.776303,-0.179957 -0.294533,0.0368 -0.423324,0.01707 -0.652721,-0.09995 -0.242229,-0.123579 -2.079497,-0.783412 -2.18136,-0.783412 -0.01876,0 -0.019,0.03962 -5.65e-4,0.08804 0.0255,0.06704 -0.170137,0.09094 -0.820028,0.100172 -0.480574,0.0068 -0.791972,-0.01235 -0.712661,-0.0439 0.101735,-0.04047 0.0092,-0.07053 -0.333183,-0.108231 -0.260726,-0.0287 -0.522199,-0.03371 -0.581059,-0.01114 -0.173852,0.06671 -0.12235,-0.01162 0.08668,-0.13184 0.188767,-0.108564 0.18385,-0.110092 -0.193684,-0.06014 -0.213055,0.02819 -0.51415,0.05664 -0.669098,0.06321 -0.481139,0.02041 -2.443344,0.91663 -3.275052,1.495855 -0.251794,0.175353 -0.512894,0.322134 -0.580223,0.326178 -0.184952,0.01111 -1.787266,1.555105 -2.004602,1.931642 -0.104606,0.181234 -0.226577,0.352166 -0.271048,0.379853 -0.04447,0.02768 -0.199938,0.334313 -0.345483,0.681392 -0.261807,0.624329 -0.486393,0.959595 -0.59701,0.891235 -0.08224,-0.05081 -0.513303,0.925825 -0.876035,1.984817 l -0.312356,0.911918 0.01644,2.423828 c 0.01301,1.9195 0.0411,2.55572 0.134971,3.05771 0.355258,1.89978 1.096654,3.62052 2.298717,5.33521 0.588725,0.83978 2.097574,2.34737 2.959219,2.95673 1.096138,0.77521 2.635377,1.46781 3.697641,1.66379 0.462776,0.0854 1.866443,0.0916 1.514271,0.007 z m 2.112941,-8.0196 c 0.115332,-0.033 -0.07122,-0.0659 -0.540703,-0.0954 -0.928865,-0.0583 -1.52572,-0.21676 -1.94216,-0.51563 -0.184092,-0.13211 -0.376927,-0.2402 -0.42852,-0.2402 -0.112285,0 -0.828685,-0.48865 -1.172126,-0.7995 -0.254845,-0.23066 -0.194371,-0.13197 0.20776,0.33901 0.33452,0.39179 -0.07797,0.0413 -0.65289,-0.55474 -0.59652,-0.61845 -0.631243,-0.5152 -0.04316,0.12828 0.666124,0.72884 1.988878,1.48217 2.982018,1.69829 0.460973,0.10033 1.304482,0.12147 1.589757,0.0399 z"
     id="path872"
     inkscape:connector-curvature="0" />
  <g
     id="g927"
     transform="matrix(0.62409437,0,0,0.61920978,-42.336497,-104.37438)">
    <path
       style="fill:#000000;stroke-width:0.22195478"
       d="m -122.25642,255.73211 c -9.33999,-0.71278 -17.47256,-5.52202 -22.47058,-13.28812 -1.96271,-3.04973 -3.29026,-6.26263 -4.08113,-9.87699 -0.32292,-1.47582 -0.4103,-2.78071 -0.40126,-5.99278 0.0125,-4.44275 0.30997,-6.30889 1.5607,-9.79071 3.0238,-8.4177 10.11624,-15.21137 18.62265,-17.83818 3.40536,-1.05158 5.29057,-1.33076 8.87819,-1.31477 5.97179,0.0266 10.89436,1.53843 15.93449,4.89378 6.026313,4.01188 10.351133,10.2262 12.185614,17.50947 0.441354,1.75227 0.501318,2.54786 0.501318,6.65139 0,5.29155 -0.259741,6.79004 -1.874648,10.81522 -1.589398,3.96159 -3.587588,6.93614 -6.750224,10.04853 -4.08851,4.02354 -9.36162,6.77496 -14.85114,7.74907 -1.92581,0.34173 -5.59057,0.56104 -7.25398,0.43409 z m 7.54647,-3.17029 c 10.71186,-2.41601 18.826916,-10.88128 20.657015,-21.5485 0.404444,-2.35742 0.341429,-7.46648 -0.119085,-9.65504 -2.144128,-10.18978 -9.51646,-17.95918 -19.65012,-20.70844 -1.92203,-0.52145 -2.49145,-0.57267 -6.43668,-0.57905 -3.71395,-0.006 -4.59798,0.061 -6.2298,0.47206 -10.48329,2.64084 -18.09662,10.72287 -20.09292,21.32988 -0.49505,2.63035 -0.32524,8.50578 0.31549,10.91622 2.9884,11.24245 11.83416,18.93055 23.34377,20.28873 1.64229,0.1938 6.38747,-0.10427 8.21233,-0.51586 z m -8.37949,-1.80431 c -5.38309,-0.67004 -10.31761,-3.01633 -14.18327,-6.74393 -0.76865,-0.7412 -1.42495,-1.47866 -1.45844,-1.63878 -0.0404,-0.19329 0.75974,-0.54365 2.38061,-1.04237 1.34282,-0.41317 3.02665,-0.99139 3.74184,-1.28494 l 1.30035,-0.53372 2.25093,1.14164 c 2.32342,1.17842 3.64232,1.56679 6.14898,1.81063 3.10541,0.30209 7.64836,-0.77175 11.14471,-2.63433 5.01301,-2.67054 10.96127,-8.60994 14.371359,-14.34997 0.513313,-0.86404 1.033728,-1.57097 1.156476,-1.57097 0.422115,0 0.05899,6.78398 -0.464843,8.68446 -1.193774,4.33099 -3.367042,8.04266 -6.548922,11.18477 -3.67545,3.6295 -7.93487,5.87168 -12.79497,6.73534 -1.94151,0.34501 -5.29299,0.46022 -7.04481,0.24217 z m -1.33957,-11.63186 c -1.51944,-0.36788 -2.93237,-1.00887 -2.93237,-1.33031 0,-0.1392 0.6686,-0.64421 1.48577,-1.12224 5.95888,-3.4858 12.17351,-9.84023 14.51264,-14.83909 3.5082,-7.49726 0.69083,-14.79124 -6.28219,-16.26421 -8.28286,-1.74966 -18.01721,6.79595 -19.71255,17.30527 -0.35876,2.22397 -0.1592,5.76539 0.44407,7.88048 0.54034,1.89446 1.25842,3.39608 2.50311,5.23442 0.82032,1.21158 0.85988,1.3364 0.50556,1.59548 -0.51683,0.37791 -5.08021,1.45738 -6.32978,1.4973 l -0.9988,0.0319 -1.05747,-2.12621 c -2.64972,-5.32769 -3.12317,-12.04023 -1.25897,-17.84972 1.19627,-3.72798 2.8515,-6.48879 5.63718,-9.40244 3.39991,-3.55609 7.02709,-5.67186 11.93981,-6.96463 2.63821,-0.69423 8.55194,-0.69873 11.17226,-0.009 6.35166,1.67314 11.18806,5.02127 14.69149,10.17061 1.093855,1.60774 2.596378,4.70594 2.961063,6.10571 0.262459,1.0074 0.259407,1.01727 -0.9849,3.18388 -4.916913,8.56142 -12.488193,15.15012 -19.280743,16.77853 -2.12371,0.50912 -5.19942,0.56338 -7.01518,0.12375 z m -6.57917,-3.83971 c -1.18392,-1.21351 -2.08923,-2.71711 -2.73777,-4.54702 -0.8661,-2.44376 -0.94911,-6.16887 -0.20198,-9.06408 1.16095,-4.49877 3.15251,-8.13342 6.01414,-10.97594 1.88189,-1.86931 3.36258,-2.76948 5.48459,-3.33428 3.912,-1.04122 7.70838,0.67127 9.40285,4.24147 0.80899,1.7045 1.0227,4.79067 0.47877,6.91385 -1.49328,5.82883 -7.97775,12.77339 -15.58442,16.69019 -0.96902,0.49896 -1.82537,0.90742 -1.90301,0.90767 -0.0776,2.3e-4 -0.50656,-0.37407 -0.95317,-0.83186 z"
       id="path929"
       inkscape:connector-curvature="0" />
  </g>
  <g
     id="g969"
     transform="matrix(0.17104852,0,0,0.17104852,35.02972,7.7081535)"
     style="fill:#000000">
    <path
       style="fill:#000000"
       d="m -93.126308,242.05115 c 22.142593,-26.45089 45.278395,-53.323 68.118638,-79.53447 l 12.627763,12.72412 12.00676684,-13.1496 -48.37794484,-54.74133 18.839957,-16.25721 45.947043,50.42402 c 16.873057,-17.98916 45.93547,-52.762904 45.93547,-52.762904 l 11.952557,9.925079 -48.487288,54.995755 79.034736,88.34302 z M 42.457245,212.7305 10.010485,174.72862 -1.5286149,187.44144 31.065735,225.51668 Z"
       id="path971"
       inkscape:connector-curvature="0"
       sodipodi:nodetypes="ccccccccccccccccc" />
  </g>
  <path
     inkscape:connector-curvature="0"
     id="path1098"
     d="m -164.18002,53.962569 c -4.03983,-0.437677 -7.797,-2.146039 -10.63644,-4.836321 -0.58085,-0.550323 -1.62318,-1.69364 -1.57947,-1.732463 0.0133,-0.01185 0.3934,0.0078 0.84449,0.04377 7.45094,0.593976 14.66789,0.391043 19.3371,-0.543739 3.51893,-0.704492 7.18915,-2.193256 9.85425,-3.997209 0.38051,-0.257564 0.69185,-0.437684 0.69185,-0.400265 0,0.14707 -0.70396,1.66435 -1.06224,2.289502 -1.48573,2.592375 -3.35694,4.611635 -5.7441,6.198582 -2.19081,1.456414 -4.40118,2.336947 -7.04034,2.804614 -0.73658,0.130522 -1.27627,0.168253 -2.64564,0.184951 -0.94614,0.01154 -1.85491,0.0063 -2.01946,-0.01146 z m -5.64168,-7.433673 c -1.12832,-0.03229 -2.64293,-0.09701 -3.36578,-0.143887 -1.64602,-0.106723 -4.22277,-0.304112 -4.23462,-0.324397 -0.004,-0.0083 -0.1717,-0.279628 -0.37068,-0.602761 -0.19899,-0.323142 -0.53631,-0.928984 -0.74964,-1.346312 -0.37264,-0.729077 -0.40071,-0.762697 -0.7166,-0.85842 -0.52028,-0.157659 -1.11291,-0.398862 -1.15758,-0.47114 -0.0225,-0.03636 0.13142,-0.38491 0.34204,-0.774463 l 0.38295,-0.708278 -0.22131,-0.880524 c -0.42105,-1.675188 -0.49743,-2.350196 -0.49743,-4.395891 0,-2.320664 0.1785,-3.548518 0.79737,-5.484772 0.88454,-2.767508 2.33057,-5.123672 4.43768,-7.230794 1.46028,-1.460268 2.80506,-2.442708 4.60464,-3.363947 l 0.78968,-0.404255 0.3625,-1.1449 c 0.48789,-1.54101 0.46485,-1.486043 0.60112,-1.433749 0.0643,0.02468 0.40613,0.429923 0.75961,0.900549 0.40247,0.535829 0.68001,0.841375 0.7425,0.817399 0.2078,-0.07974 1.43298,-0.353172 2.08374,-0.465049 0.923,-0.158671 3.54151,-0.221457 4.61492,-0.110662 7.34227,0.757884 13.55691,6.012353 15.50034,13.105494 0.35435,1.293336 0.56747,2.603345 0.619,3.804958 l 0.0434,1.009728 0.56027,0.57078 0.5603,0.570772 -0.35211,0.681735 c -1.09018,2.110774 -2.32959,3.47552 -4.36114,4.802147 -4.39303,2.868711 -11.68987,4.169115 -21.77509,3.880639 z m 13.98133,-2.468546 c 0.95414,-0.108135 2.04465,-0.328212 2.96753,-0.598885 0.77707,-0.227908 2.30796,-0.829186 2.43525,-0.956478 0.0949,-0.09483 -0.89395,-2.038126 -1.65632,-3.25529 -1.01486,-1.620235 -2.20932,-3.203639 -3.70364,-4.909715 -1.33156,-1.520213 -4.02084,-4.149288 -5.19793,-5.081557 l -0.31578,-0.250105 0.12779,0.291057 c 1.01873,2.320642 1.53246,4.013728 1.83422,6.045215 0.40513,2.727357 0.20099,5.583507 -0.56936,7.966448 -0.14294,0.442131 -0.25987,0.831223 -0.25987,0.864657 0,0.07952 3.42142,-0.01146 4.33811,-0.115347 z m -5.8023,-0.277539 c -0.0198,-0.195397 -0.18693,-2.543032 -0.37137,-5.216954 -0.68224,-9.891367 -0.69683,-10.065175 -0.87262,-10.396523 -0.39713,-0.748497 -1.39406,-2.348394 -2.74981,-4.412908 -0.81044,-1.234118 -1.75374,-2.706808 -2.0962,-3.27264 -0.34247,-0.565837 -0.63036,-1.020219 -0.63972,-1.009734 -0.0102,0.01047 -0.10772,0.355636 -0.21855,0.767008 -1.30526,4.844966 -4.25426,11.212454 -9.36186,20.21398 -0.42617,0.751095 -0.77486,1.392313 -0.77486,1.424934 0,0.08779 2.82503,0.73816 3.77715,0.869571 1.48835,0.205415 3.97959,0.482459 8.07786,0.89833 2.22143,0.225418 4.15673,0.422539 4.30072,0.438065 0.14399,0.01552 0.42009,0.03356 0.61354,0.04018 l 0.35175,0.01201 z m 13.05371,-2.227904 c 0.7869,-0.485144 1.3869,-0.981189 2.12499,-1.756798 0.58905,-0.618981 1.69366,-2.150329 1.69299,-2.347013 -1.5e-4,-0.0451 -0.19368,-0.237917 -0.43006,-0.42854 -1.48287,-1.195762 -4.05266,-2.494589 -6.78738,-3.430479 -1.26734,-0.433712 -3.79244,-1.206458 -3.82757,-1.171325 -0.0126,0.01271 0.48862,0.373995 1.11405,0.802855 2.84434,1.950344 3.94178,3.030861 4.73553,4.662481 0.49238,1.012155 0.71755,1.961987 0.73294,3.091649 0.006,0.503798 0.0308,0.916101 0.0532,0.916243 0.0225,1.47e-4 0.28849,-0.152439 0.59119,-0.339073 z"
     style="fill:#000000;stroke-width:0.07479507" />
  <path
     style="opacity:0.98999999;fill:#000000;fill-opacity:1;stroke-width:1.79999995"
     inkscape:connector-curvature="0"
     id="path2-4"
     d="m 36.003976,107.01825 a 6.3,6.3 0 0 1 -6.3,-6.3 6.3,6.3 0 0 1 6.3,-6.300002 6.3,6.3 0 0 1 6.3,6.300002 6.3,6.3 0 0 1 -6.3,6.3 m 13.374,-4.554 c 0.072,-0.576 0.126,-1.152 0.126,-1.746 0,-0.594 -0.054,-1.188002 -0.126,-1.800002 l 3.798,-2.934 c 0.342,-0.27 0.432,-0.756 0.216,-1.152 l -3.6,-6.228 c -0.216,-0.396 -0.702,-0.558 -1.098,-0.396 l -4.482,1.8 c -0.936,-0.702 -1.908,-1.314 -3.042,-1.764 l -0.666,-4.77 c -0.072,-0.432 -0.45,-0.756 -0.9,-0.756 h -7.2 c -0.45,0 -0.828,0.324 -0.9,0.756 l -0.666,4.77 c -1.134,0.45 -2.106,1.062 -3.042,1.764 l -4.482,-1.8 c -0.396,-0.162 -0.882,0 -1.098,0.396 l -3.6,6.228 c -0.234,0.396 -0.126,0.882 0.216,1.152 l 3.798,2.934 c -0.072,0.612 -0.126,1.206002 -0.126,1.800002 0,0.594 0.054,1.17 0.126,1.746 l -3.798,2.988 c -0.342,0.27 -0.45,0.756 -0.216,1.152 l 3.6,6.228 c 0.216,0.396 0.702,0.54 1.098,0.396 l 4.482,-1.818 c 0.936,0.72 1.908,1.332 3.042,1.782 l 0.666,4.77 c 0.072,0.432 0.45,0.756 0.9,0.756 h 7.2 c 0.45,0 0.828,-0.324 0.9,-0.756 l 0.666,-4.77 c 1.134,-0.468 2.106,-1.062 3.042,-1.782 l 4.482,1.818 c 0.396,0.144 0.882,0 1.098,-0.396 l 3.6,-6.228 c 0.216,-0.396 0.126,-0.882 -0.216,-1.152 z" />
  <path
     style="fill:#000000;fill-opacity:1;stroke-width:1.79999995"
     inkscape:connector-curvature="0"
     id="path2-3"
     d="M 32.4,-41.392428 H 21.6 c -1.998,0 -3.6,1.602 -3.6,3.6 v 21.6 a 3.6,3.6 0 0 0 3.6,3.6 h 28.8 a 3.6,3.6 0 0 0 3.6,-3.6 v -18 c 0,-1.998 -1.62,-3.6 -3.6,-3.6 H 36 Z" />
</svg>
