<?xml version="1.0" encoding="UTF-8" standalone="no"?>
<svg
   xmlns:dc="http://purl.org/dc/elements/1.1/"
   xmlns:cc="http://creativecommons.org/ns#"
   xmlns:rdf="http://www.w3.org/1999/02/22-rdf-syntax-ns#"
   xmlns:svg="http://www.w3.org/2000/svg"
   xmlns="http://www.w3.org/2000/svg"
   xmlns:sodipodi="http://sodipodi.sourceforge.net/DTD/sodipodi-0.dtd"
   xmlns:inkscape="http://www.inkscape.org/namespaces/inkscape"
   version="1.1"
   width="72"
   height="72"
   viewBox="0 0 71.999999 72"
   id="svg4"
   sodipodi:docname="ubuntu.svg"
   inkscape:version="0.92.4 5da689c313, 2019-01-14">
  <metadata
     id="metadata10">
    <rdf:RDF>
      <cc:Work
         rdf:about="">
        <dc:format>image/svg+xml</dc:format>
        <dc:type
           rdf:resource="http://purl.org/dc/dcmitype/StillImage" />
        <dc:title />
      </cc:Work>
    </rdf:RDF>
  </metadata>
  <defs
     id="defs8" />
  <sodipodi:namedview
     pagecolor="#ffffff"
     bordercolor="#666666"
     borderopacity="1"
     objecttolerance="10"
     gridtolerance="10"
     guidetolerance="10"
     inkscape:pageopacity="0"
     inkscape:pageshadow="2"
     inkscape:window-width="1876"
     inkscape:window-height="1027"
     id="namedview6"
     showgrid="false"
     inkscape:zoom="11.819444"
     inkscape:cx="19.417156"
     inkscape:cy="36"
     inkscape:window-x="44"
     inkscape:window-y="25"
     inkscape:window-maximized="1"
     inkscape:current-layer="svg4" />
  <path
     d="M 54,36 A 18,18 0 0 1 36,54 18,18 0 0 1 18,36 18,18 0 0 1 36,18 18,18 0 0 1 54,36 M 40.212,28.332 c 1.044,0.594 2.358,0.234 2.988,-0.792 0.558,-1.026 0.216,-2.34 -0.828,-2.952 -1.026,-0.594 -2.358,-0.288 -2.952,0.792 -0.594,1.026 -0.234,2.358 0.792,2.952 M 35.784,42.3 c -0.954,0 -1.854,-0.198 -2.646,-0.576 l -1.512,2.7 c 1.26,0.576 2.664,0.972 4.158,0.972 0.882,0 1.71,-0.126 2.52,-0.342 0.144,-0.882 0.648,-1.674 1.476,-2.142 0.828,-0.486 1.764,-0.522 2.592,-0.216 1.602,-1.566 2.628,-3.708 2.79,-6.102 l -3.078,-0.036 c -0.288,3.222 -2.988,5.742 -6.3,5.742 m 0,-12.6 c 3.312,0 6.012,2.502 6.3,5.742 l 3.078,-0.054 C 45,33.012 43.974,30.87 42.372,29.304 41.544,29.61 40.59,29.556 39.78,29.088 38.952,28.62 38.448,27.81 38.304,26.946 c -0.81,-0.216 -1.638,-0.342 -2.52,-0.342 -1.494,0 -2.898,0.342 -4.158,0.972 l 1.512,2.7 C 33.93,29.898 34.83,29.7 35.784,29.7 M 29.466,36 c 0,-2.142 1.062,-4.032 2.682,-5.166 L 30.6,28.17 c -1.908,1.278 -3.33,3.204 -3.906,5.472 0.684,0.558 1.116,1.404 1.116,2.358 0,0.954 -0.432,1.8 -1.116,2.358 0.576,2.25 1.998,4.194 3.906,5.454 l 1.548,-2.646 C 30.528,40.032 29.466,38.142 29.466,36 m 10.746,7.668 c -1.026,0.594 -1.386,1.908 -0.792,2.952 0.594,1.026 1.926,1.386 2.952,0.792 C 43.416,46.8 43.758,45.486 43.2,44.46 42.57,43.416 41.256,43.074 40.212,43.668 M 24.768,33.84 c -1.188,0 -2.16,0.972 -2.16,2.16 0,1.188 0.972,2.16 2.16,2.16 1.206,0 2.16,-0.972 2.16,-2.16 0,-1.188 -0.954,-2.16 -2.16,-2.16 z"
     id="path2"
     inkscape:connector-curvature="0"
     style="stroke-width:1.79999995;fill:#000000;fill-opacity:1" />
</svg>
