<?xml version="1.0" encoding="UTF-8" standalone="no"?>
<svg
   xmlns:dc="http://purl.org/dc/elements/1.1/"
   xmlns:cc="http://creativecommons.org/ns#"
   xmlns:rdf="http://www.w3.org/1999/02/22-rdf-syntax-ns#"
   xmlns:svg="http://www.w3.org/2000/svg"
   xmlns="http://www.w3.org/2000/svg"
   id="svg88"
   preserveAspectRatio="xMidYMid"
   version="1.1"
   viewBox="0 0 72 72"
   height="72"
   width="72">
  <metadata
     id="metadata94">
    <rdf:RDF>
      <cc:Work
         rdf:about="">
        <dc:format>image/svg+xml</dc:format>
        <dc:type
           rdf:resource="http://purl.org/dc/dcmitype/StillImage" />
        <dc:title></dc:title>
      </cc:Work>
    </rdf:RDF>
  </metadata>
  <defs
     id="defs92">
    <filter
       id="filter574"
       style="color-interpolation-filters:sRGB">
      <feColorMatrix
         id="feColorMatrix570"
         result="color1"
         values="180"
         type="hueRotate" />
      <feColorMatrix
         id="feColorMatrix572"
         result="color2"
         values="-1 0 0 0 1 0 -1 0 0 1 0 0 -1 0 1 0.21 0.72 0.07 1 0 " />
    </filter>
  </defs>
  <g
     transform="matrix(0.74204639,0,0,0.61311898,33.520609,56.644965)"
     id="g597">
    <path
       style="fill:#000000;stroke-width:0.1030784"
       d="m -18.140706,-35.83653 c -0.916749,-2.12124 -1.53659,-3.423899 -1.69853,-3.569647 -0.173874,-0.156491 -0.384875,-0.229503 -0.663253,-0.229503 -0.481297,0 -0.4857,0.160698 0.05732,-2.091013 0.414988,-1.720799 0.95163,-3.384066 1.57967,-4.896033 0.557251,-1.341547 2.007485,-4.15076 2.121417,-4.109346 0.04437,0.01613 1.323831,1.50645 2.843259,3.311831 l 2.762597,3.282513 -0.449775,1.001516 c -0.862008,1.919437 -1.446084,3.921772 -1.768749,6.063642 -0.08982,0.59625 -0.163316,1.28746 -0.163316,1.53601 0,0.24855 -0.05859,0.52607 -0.130208,0.61669 -0.165963,0.21002 -2.886943,2.42437 -2.97842,2.42386 -0.03766,-2.1e-4 -0.71807,-1.50345 -1.512017,-3.34052 z"
       id="path576" />
    <path
       style="fill:#000000;stroke-width:0.1030784"
       d="m 1.7587918,-4.3610799 c -3.614118,-0.24146 -7.191521,-1.48933 -10.495892,-3.66117 C -14.034946,-11.50433 -18.245727,-17.51811 -20.129161,-24.29223 c -0.325707,-1.17148 -0.786795,-3.17605 -0.786795,-3.4206 0,-0.05 0.160231,-0.0908 0.356068,-0.0908 0.195836,0 0.436084,-0.0302 0.533884,-0.0668 0.0978,-0.0367 1.566488,-1.20792 3.263754,-2.60259 l 3.085935,-2.53579 0.06783,0.53709 c 0.03729,0.2954 0.122154,1.04199 0.188557,1.6591 0.465608,4.32704 2.38691,8.70549 5.1989658,11.84786 2.410106,2.69322 5.792334,4.6141 9.12810299,5.18414 1.22900601,0.21003 3.51392401,0.20989 4.76284001,-3.1e-4 1.857709,-0.31262 4.062701,-1.18579 5.7208522,-2.26546 0.422085,-0.27482 0.757056,-0.43062 0.807997,-0.37581 0.917146,0.98691 5.529657,6.6123801 5.459907,6.6589501 -0.05332,0.0356 -0.426563,0.32476 -0.829418,0.64255 -4.339783,3.42356 -9.7051242,5.11805 -15.0705202,4.75959 z"
       id="path578" />
    <path
       style="fill:#000000;stroke-width:0.1030784"
       d="m -3.8554412,-30.05409 c -0.289936,-0.16548 -0.414126,-0.80723 -0.278017,-1.43668 0.152489,-0.7052 1.167415,-3.51996 1.568711,-4.35061 0.375003,-0.77623 0.851141,-1.32861 1.305433,-1.51448 0.229972,-0.0941 0.81260099,-0.13781 1.83655299,-0.13781 1.35950401,0 1.52538901,0.0198 1.77419401,0.21141 0.218337,0.16817 0.274466,0.29864 0.274466,0.63795 0,0.68826 -1.432988,4.55469 -2.02093001,5.4528 -0.326822,0.49924 -0.876406,1.00301 -1.241086,1.13764 -0.37069099,0.13685 -2.97946499,0.13666 -3.21932399,-2.2e-4 z"
       id="path580" />
    <path
       style="fill:#000000;stroke-width:0.1030784"
       d="m 1.7066168,-24.48437 c -0.77502401,-0.18365 -2.15019701,-0.87689 -2.830747,-1.42699 -0.547977,-0.44295 -1.659291,-1.65539 -1.664294,-1.81574 -0.0013,-0.0421 0.853089,-0.0773 1.89866999,-0.0783 2.29487901,-0.002 3.00173701,-0.12689 4.31485401,-0.76149 2.683541,-1.29691 4.725786,-4.49412 4.720439,-7.39003 -0.003,-1.59291 -0.704943,-2.870872 -1.873778,-3.411126 -0.454261,-0.209966 -0.6016,-0.216665 -4.765627,-0.216665 -2.36328001,0 -4.296889,-0.01787 -4.296909,-0.03973 -2e-5,-0.02184 0.254749,-0.348501 0.566151,-0.725901 0.960718,-1.164328 2.56264799,-2.180302 3.938686,-2.497991 0.834833,-0.19274 2.343018,-0.19274 3.177852,0 1.379603,0.318511 2.978034,1.333743 3.944988,2.505628 0.663975,0.804697 1.4972312,2.189725 1.4977472,2.489525 2.08e-4,0.11356 -0.7996832,2.3316 -1.7775092,4.92897 -0.977825,2.59738 -1.762577,4.80061 -1.743892,4.89603 0.02939,0.15021 0.205411,0.1774 1.308755,0.20218 0.701131,0.0157 1.273709,0.0617 1.272397,0.102 -0.0051,0.15725 -1.120978,1.3735 -1.664293,1.81402 -0.684422,0.55491 -2.231603,1.30985 -2.999943,1.46378 -0.730275,0.1463 -2.33023,0.1261 -3.023547,-0.0382 z"
       id="path582" />
    <path
       style="fill:#000000;stroke-width:0.1030784"
       d="m 19.396866,-39.790428 c 0,-0.351659 -0.891562,-2.734787 -1.449421,-3.874278 -1.091146,-2.22879 -2.335835,-3.967704 -3.981118,-5.561891 -1.311314,-1.27059 -2.639851,-2.19758 -4.3091212,-3.006702 -2.338738,-1.133622 -4.277001,-1.54183 -6.873114,-1.44751 -1.632155,0.0593 -2.45847501,0.196091 -3.856139,0.63836 -1.047919,0.331598 -2.69842,1.112761 -3.635265,1.720528 -0.395216,0.25639 -0.749,0.466168 -0.786185,0.466168 -0.03718,0 -1.32522,-1.495608 -2.862301,-3.323575 l -2.7946918,-3.323572 0.395428,-0.322951 c 3.3351928,-2.72389 7.4241058,-4.54448 11.40177879,-5.076646 1.27189801,-0.170167 4.14481201,-0.170167 5.41670901,0 8.7419852,1.169577 16.3767872,7.874397 19.9540632,17.52349 0.476062,1.284085 1.312877,4.307649 1.455471,5.258825 l 0.07259,0.484502 h -4.074359 c -3.572664,0 -4.074359,-0.01905 -4.074359,-0.154748 z"
       id="path584" />
    <path
       style="fill:#000000;stroke-width:0.1030784"
       d="m 20.508604,-19.89711 -2.790145,-3.31501 0.435282,-0.94424 c 0.436538,-0.94694 1.243125,-3.21609 1.243125,-3.49724 0,-0.12891 0.479781,-0.1503 3.411485,-0.15213 2.486816,-0.002 3.595008,-0.0401 4.088579,-0.14218 0.372394,-0.0771 0.687723,-0.13067 0.700722,-0.11922 0.013,0.0115 -0.119751,0.70486 -0.295011,1.54088 -0.600855,2.86627 -1.547863,5.52835 -2.898106,8.14672 -0.49118,0.95248 -0.940918,1.74656 -0.999419,1.7646 -0.0585,0.018 -1.361932,-1.45891 -2.896512,-3.28218 z"
       id="path586" />
    <path
       style="fill:#000000;stroke-width:0.1030784"
       d="m 20.438541,-30.02116 c 0,-0.0415 0.620538,-1.73987 1.378971,-3.77403 l 1.378971,-3.69848 h 1.75079 c 1.741972,0 1.752138,0.001 2.018874,0.26252 0.242068,0.23703 0.261285,0.31273 0.197976,0.78002 -0.08764,0.64687 -1.085491,3.42796 -1.620529,4.5165 -0.220594,0.4488 -0.567296,1.00513 -0.77044,1.23629 -0.60056,0.68334 -0.850328,0.75273 -2.709718,0.75273 -0.893692,0 -1.624895,-0.034 -1.624895,-0.0755 z"
       id="path588" />
  </g>
</svg>
